<svg width="43" height="43" xmlns="http://www.w3.org/2000/svg">
    <g transform="translate(1 1)" fill="none" fill-rule="evenodd">
        <rect stroke="#F1F1F1" fill="#FFF" width="41" height="41" rx="4"/>
        <g fill="#80460B" fill-rule="nonzero">
            <path d="M25.649 23.079h-9.413V6.489h9.413v16.59zm-8.67-.714h7.927V7.203h-7.927v15.162z"/>
            <path d="M28.285 32.358H13.667V31.1c0-.293.121-.573.336-.78.215-.207.507-.323.811-.323V13.725h12.323v16.273c.304 0 .596.116.81.323.215.207.335.488.334.78l.004 1.257zm-13.875-.714h13.132V31.1a.378.378 0 0 0-.116-.275.41.41 0 0 0-.285-.114H26.4V14.439H15.56v16.273h-.743a.397.397 0 0 0-.405.39l-.003.542zM26.881 7.203H15.12c-.601 0-1.088-.469-1.088-1.046v-.111c0-.578.487-1.046 1.088-1.046H26.88c.602 0 1.09.468 1.092 1.046v.11c-.002.579-.49 1.047-1.092 1.047zM15.12 5.714a.339.339 0 0 0-.345.332v.11c0 .184.154.333.345.333H26.88a.343.343 0 0 0 .35-.332v-.111a.343.343 0 0 0-.35-.332H15.12z"/>
            <path d="M16.767 34h-1.986c-.615 0-1.114-.48-1.114-1.071v-1.285h4.214v1.285c0 .591-.499 1.071-1.114 1.071zm-2.357-1.642v.571c0 .197.166.357.37.357h1.987c.205 0 .372-.16.372-.357v-.571h-2.73z"/>
            <path d="M20.235 34h-1.983c-.615 0-1.113-.48-1.113-1.071v-1.285h4.21v1.285c0 .591-.499 1.071-1.114 1.071zm-2.354-1.642v.571c0 .197.166.357.371.357h1.983c.205 0 .371-.16.371-.357v-.571h-2.725z"/>
            <path d="M23.703 34H21.72c-.615 0-1.114-.48-1.114-1.071v-1.285h4.21v1.285c0 .591-.498 1.071-1.113 1.071zm-2.354-1.642v.571c0 .197.166.357.371.357h1.983c.205 0 .371-.16.371-.357v-.571H21.35z"/>
            <path d="M27.17 34h-1.982c-.615 0-1.114-.48-1.114-1.071v-1.285h4.21v1.285c0 .591-.498 1.071-1.113 1.071zm-2.353-1.642v.571c0 .197.166.357.371.357h1.983c.205 0 .371-.16.371-.357v-.571h-2.725z"/>
            <path d="M12 31.597h18v1H12zM20.941 29.998h6.2v1h-6.2zM15.189 22.365h11.577v1H15.189z"/>
        </g>
    </g>
</svg>
