<svg xmlns="http://www.w3.org/2000/svg" width="20" height="20" viewBox="0 0 20 20">
    <g fill="none" fill-rule="evenodd">
        <path d="M0 0H20V20H0z" transform="rotate(90 10 10)"/>
        <path fill="#80460B" fill-rule="nonzero" d="M10.188 1c.474 0 .866.353.928.81l.009.127V15.44l4.65-4.648c.332-.333.853-.363 1.22-.091l.105.09c.333.333.364.854.091 1.221l-.09.105-6.25 6.25c-.333.333-.854.364-1.221.091l-.105-.09-6.25-6.25c-.367-.367-.367-.96 0-1.326.332-.333.853-.363 1.22-.091l.105.09 4.65 4.65V1.937c0-.517.42-.937.938-.937z" transform="rotate(90 10 10)"/>
    </g>
</svg>
