<svg width="36" height="36" viewBox="0 0 36 36" xmlns="http://www.w3.org/2000/svg">
    <path d="M18.008 0C8.088 0 0 8.076 0 17.995S8.089 36 18.008 36C27.928 36 36 27.914 36 17.995 36 8.076 27.927 0 18.008 0zm7.322 12c.439-.009.864.158 1.178.462a1.618 1.618 0 0 1 .003 2.32l-9.813 9.746a1.643 1.643 0 0 1-2.306 0L9.48 19.66a1.62 1.62 0 0 1-.424-1.573c.152-.562.593-1 1.16-1.151.565-.15 1.169.01 1.583.421l3.74 3.73 8.654-8.595c.3-.305.708-.482 1.137-.491z" fill="#30855C" fill-rule="nonzero"/>
</svg>
