<svg xmlns="http://www.w3.org/2000/svg" xmlns:xlink="http://www.w3.org/1999/xlink" width="24" height="24" viewBox="0 0 24 24">
    <defs>
        <circle id="vbfho8giua" cx="12" cy="12" r="12"/>
    </defs>
    <g fill="none" fill-rule="evenodd">
        <g>
            <g>
                <g>
                    <g transform="translate(-572 -732) translate(148 268) translate(32 440) translate(392 24)">
                        <mask id="bhdpn1np6b" fill="#fff">
                            <use xlink:href="#vbfho8giua"/>
                        </mask>
                        <use fill="#FFF" xlink:href="#vbfho8giua"/>
                        <g stroke-linecap="round" stroke-linejoin="round" mask="url(#bhdpn1np6b)">
                            <g stroke="#80460B" stroke-width=".8">
                                <path d="M10.575 15.615H2.79c-.99 0-1.8-.81-1.8-1.8V4.23M16.425 4.23L16.425 9.405" transform="translate(3 4)"/>
                                <g>
                                    <path d="M15.525 3.105H.09V2.79c0-.72.585-1.305 1.305-1.305H14.22c.72 0 1.305.585 1.305 1.305v.315zM9.225 1.485H6.39h0c0-.585.495-1.08 1.08-1.08h.675c.585 0 1.08.495 1.08 1.08h0z" transform="translate(3 4) translate(.9)"/>
                                </g>
                                <path d="M16.785 4.23H.585C.27 4.23 0 3.96 0 3.645h0c0-.315.27-.585.585-.585h16.2c.315 0 .585.27.585.585h0c0 .315-.27.585-.585.585z" transform="translate(3 4)"/>
                                <g>
                                    <path d="M3.51 5.4L3.51 6.075" transform="translate(3 4) translate(10.35 9)"/>
                                    <g transform="translate(3 4) translate(10.35 9)">
                                        <circle cx="3.51" cy="3.915" r="3.51"/>
                                        <path d="M5.67 3.915c0 1.215-.99 2.16-2.16 2.16-1.17 0-2.16-.945-2.16-2.16 0-1.215.99-2.16 2.16-2.16v2.16h2.16zM1.35 3.915L1.98 3.96"/>
                                    </g>
                                </g>
                            </g>
                        </g>
                    </g>
                </g>
            </g>
        </g>
    </g>
</svg>
