<?xml version="1.0" encoding="UTF-8"?>
<svg width="64px" height="64px" viewBox="0 0 64 64" version="1.1" xmlns="http://www.w3.org/2000/svg" xmlns:xlink="http://www.w3.org/1999/xlink">
    <title>D0FB5238-1223-455B-AFBA-0CC885CD75A7</title>
    <g id="Sourcing_Module" stroke="none" stroke-width="1" fill="none" fill-rule="evenodd">
        <g id="01_Sourcing" transform="translate(-1078.000000, -485.000000)" fill="#D8D8D8" fill-rule="nonzero">
            <g id="Group-14" transform="translate(928.000000, 413.000000)">
                <g id="Group" transform="translate(150.000000, 72.000000)">
                    <path d="M58.3506244,0.620564566 L6.04937563,0.620564566 C3.05595607,0.620564566 0.620573198,3.0559473 0.620573198,6.049367 L0.620573198,58.3506157 C0.620573198,61.344036 3.05595607,63.7794169 6.04937563,63.7794169 L58.3506244,63.7794169 C61.3443059,63.7794169 63.7794255,61.344036 63.7794255,58.3506157 L63.7794255,6.049367 C63.7794255,3.05594723 61.3443059,0.620564566 58.3506244,0.620564566 Z M62.151421,45.8577822 L39.9512722,28.8677665 L32.6366121,36.4841677 L22.141658,26.4876631 L2.2485793,45.5733318 L2.2485793,6.04936782 C2.2485793,3.95368289 3.953692,2.24856985 6.04937694,2.24856985 L58.3506257,2.24856985 C60.4465739,2.24856985 62.151421,3.95368289 62.151421,6.04936782 L62.151421,45.8577822 L62.151421,45.8577822 Z" id="Shape"></path>
                    <circle id="Oval" cx="50.4906448" cy="17.0560203" r="6.19626916"></circle>
                </g>
            </g>
        </g>
    </g>
</svg>