<svg xmlns="http://www.w3.org/2000/svg" width="58" height="58" viewBox="0 0 58 58">
    <g fill="none" fill-rule="evenodd">
        <g fill-rule="nonzero">
            <g transform="translate(-416 -438) translate(416 438)">
                <circle cx="29" cy="29" r="29" fill="#F0F0F0"/>
                <g fill="#0052B4">
                    <path d="M4.996 10.345C2.718 13.31 1 16.725 0 20.435h15.087L4.996 10.346zM56.002 20.436c-1-3.71-2.718-7.127-4.996-10.09l-10.09 10.09h15.086zM0 35.566c1 3.711 2.718 7.127 4.996 10.09l10.09-10.09H0zM45.657 4.996C42.693 2.718 39.277 1 35.567 0v15.086l10.09-10.09zM10.345 51.006c2.964 2.278 6.38 3.996 10.09 4.996V40.916l-10.09 10.09zM20.436 0c-3.711 1-7.127 2.718-10.09 4.996l10.09 10.09V0zM35.566 56.002c3.711-1 7.127-2.718 10.09-4.996l-10.09-10.09v15.086zM40.916 35.566l10.09 10.091c2.278-2.964 3.996-6.38 4.996-10.09H40.916z" transform="translate(.999 .999)"/>
                </g>
                <g fill="#D80027">
                    <path d="M57.755 25.217H32.783V.245C31.544.085 30.282 0 29 0s-2.544.084-3.783.245v24.972H.245C.085 26.456 0 27.718 0 29s.084 2.544.245 3.783h24.972v24.972c1.239.16 2.5.245 3.783.245 1.282 0 2.544-.084 3.783-.245V32.783h24.972c.16-1.239.245-2.5.245-3.783 0-1.282-.084-2.544-.245-3.783z"/>
                    <path d="M36.565 36.565l12.941 12.941c.595-.595 1.163-1.217 1.705-1.862L40.13 36.565h-3.566zM21.435 36.565L8.494 49.506c.595.595 1.217 1.163 1.862 1.705l11.079-11.08v-3.566zM21.435 21.435L8.494 8.494c-.595.595-1.163 1.217-1.705 1.862l11.08 11.079h3.566zM36.565 21.435L49.506 8.494c-.595-.595-1.217-1.163-1.862-1.705L36.565 17.87v3.566z"/>
                </g>
            </g>
        </g>
    </g>
</svg>
