<?xml version="1.0" encoding="UTF-8"?>
<svg width="108px" height="37px" viewBox="0 0 108 37" version="1.1" xmlns="http://www.w3.org/2000/svg" xmlns:xlink="http://www.w3.org/1999/xlink">
    <title>Group</title>
    <g id="Page-1" stroke="none" stroke-width="1" fill="none" fill-rule="evenodd">
        <g id="Updated-nav" transform="translate(-145.000000, -16.000000)">
            <g id="Group" transform="translate(145.000000, 16.000000)">
                <path d="M50.2913678,26.0628507 C50.3108376,26.291237 50.3108376,26.5209533 50.2913678,26.7493396 C50.2913678,26.7945033 50.2913678,26.9390273 50.2913678,27.200977 C50.2913678,27.4629267 50.2913678,27.5984179 50.2913678,27.6526144 C50.2839687,27.7980913 50.209202,27.930943 50.0905703,28.009408 C50.0062391,28.0775003 49.9075049,28.1239341 49.8024694,28.1448992 C49.6673117,28.1545988 49.5316669,28.1545988 49.3965091,28.1448992 C48.5496673,28.1208118 47.2852247,28.1102736 45.6031814,28.1132846 C44.36784,28.1132846 43.7436215,28.1132846 43.7217956,28.1132846 C43.5543449,28.1306801 43.3862345,28.0875956 43.2459927,27.9913425 C43.1586895,27.9145641 43.119403,27.7339091 43.119403,27.4538939 L43.119403,7.9115432 C43.119403,7.60894613 43.1805153,7.41925842 43.3202005,7.33796369 C43.5418391,7.25335813 43.7792761,7.22245727 44.0142617,7.2476362 L49.6889752,7.2476362 C50.0556489,7.27021807 50.243351,7.41022567 50.2651768,7.667659 C50.2908417,7.93626325 50.2995905,8.20631046 50.2913678,8.47608996 C50.301055,8.75489179 50.2923042,9.03405268 50.2651768,9.31161917 C50.2527836,9.39512628 50.2179999,9.4733625 50.1647781,9.53743787 C50.1088241,9.59378045 50.036948,9.63017226 49.9596153,9.64131448 C49.8848709,9.66208546 49.809098,9.67866959 49.7326268,9.69099459 C49.641172,9.70015222 49.5490762,9.70015222 49.4576214,9.69099459 L49.2219026,9.69099459 L46.415102,9.69099459 C46.171844,9.66518464 45.9260712,9.69446611 45.6948499,9.7768057 C45.53601,9.93052432 45.4594634,10.1546385 45.4896872,10.3774835 L45.4896872,16.0410166 C45.5022571,16.2123504 45.6175968,16.3569989 45.777788,16.4023265 C46.0142785,16.4647613 46.2591486,16.4861284 46.5024053,16.4655557 L48.3532349,16.4655557 C48.540229,16.4589772 48.7020182,16.5991207 48.728639,16.7907347 C48.7846617,17.0974276 48.7949665,17.4111876 48.7591952,17.7211077 C48.7699123,18.0120431 48.7596988,18.3034003 48.728639,18.5927679 C48.6937177,18.750841 48.5671279,18.8502013 48.3532349,18.8863323 L46.5024053,18.8863323 C46.2403627,18.8676159 45.9770845,18.8889207 45.7210409,18.9495615 C45.5514353,19.0830522 45.4633009,19.2998372 45.4896872,19.5186246 L45.4896872,25.3447472 C45.5690554,25.5672125 45.7860728,25.7038045 46.0135069,25.6744425 L49.658419,25.6744425 C50.029458,25.692508 50.2389858,25.8234829 50.2913678,26.0628507 Z" id="Path" fill="#333333" fill-rule="nonzero"></path>
                <path d="M59.8471158,27.4553028 C59.8144337,27.3427516 59.7884471,27.2279619 59.7693223,27.1116678 C59.7693223,27.025759 59.7283784,26.8991566 59.7283784,26.858463 C59.6505849,26.4696128 59.6137353,26.1711929 59.5727914,25.9993753 C59.339411,24.6429211 59.1101249,23.4311554 58.9135941,22.3188629 C58.8358006,21.8667115 58.7580071,21.2472641 58.6065145,20.4740852 C58.5690325,20.3260736 58.5430077,20.1748123 58.5287211,20.0219338 C58.4886779,19.8530796 58.4626393,19.6805499 58.4509276,19.5064812 C58.3718765,19.2716782 58.3718765,19.0133205 58.4509276,18.7785174 C58.5886185,18.5646413 58.7434656,18.3648884 58.9135941,18.1816776 C59.0773893,18.0057889 59.2155086,17.8029271 59.3230334,17.5803162 C59.3661427,17.2981167 59.3798799,17.0113977 59.3639773,16.7257501 L59.3639773,9.17030014 C59.3731781,8.93459461 59.3339861,8.69964339 59.2493343,8.48303001 C59.0782416,8.24555956 58.8964963,8.0176918 58.70478,7.80028139 C58.5792511,7.65723245 58.4422075,7.52708023 58.2953406,7.41143119 C58.1832885,7.35697201 58.0667411,7.31457491 57.9473172,7.2848288 C57.8285798,7.2848288 57.7139368,7.23961366 57.5951994,7.23961366 C57.465674,7.23614678 57.3362923,7.25134664 57.2103264,7.2848288 L53.4844283,7.2848288 C53.074989,7.2848288 52.825231,7.32552242 52.7474375,7.45664633 C52.7032599,7.70978251 52.6908603,7.96843138 52.710588,8.22530371 L52.710588,27.1116678 C52.6917367,27.3835891 52.7041182,27.6570518 52.7474375,27.9255403 C52.825231,28.0566642 52.9808179,28.142573 53.2919918,28.142573 L54.1108705,28.142573 C54.4957435,28.142573 54.7291239,28.0973578 54.7700679,28.0114491 C54.8110118,27.9255403 54.8847109,27.6723355 54.8847109,27.1975765 L54.8847109,19.7054278 C54.8847109,19.4477015 54.8478614,19.275884 54.8847109,19.2532764 C54.8742194,19.1778469 54.88876,19.1007712 54.9256548,19.0362437 C55.1186219,18.8878763 55.3659113,18.8556487 55.5848522,18.950335 C55.7568095,18.9873059 55.9009782,19.1160274 55.9697252,19.29397 C55.9697252,19.3391852 56.0475186,19.6376051 56.1253121,20.1485362 C56.1593515,20.2974135 56.1853287,20.4483981 56.2031056,20.6006876 C56.2413085,20.7392818 56.2673595,20.8816105 56.2808991,21.0257099 C56.436486,21.8395824 56.551129,22.4816374 56.6289225,22.8704876 C56.706716,23.2593378 56.7845095,23.8968713 56.9400964,24.7514375 C57.0956834,25.6060036 57.2144208,26.2118865 57.2922142,26.5962152 C57.3659133,27.193055 57.4068573,27.500518 57.4068573,27.5366901 C57.419655,27.7183148 57.5052438,27.8841346 57.6402377,27.9888415 C57.802033,28.0980926 57.9923337,28.1442625 58.1806976,28.1199654 L59.1510689,28.1199654 C59.2369484,28.1629101 59.3354194,28.1629101 59.4212988,28.1199654 C59.5013106,28.1271091 59.5816477,28.1115446 59.6546793,28.0747503 C59.715971,28.0751108 59.7737523,28.0432063 59.8102662,27.9888415 C59.8536019,27.9122307 59.8802327,27.8255518 59.8880597,27.7356367 C59.8589486,27.6457588 59.8450693,27.5507304 59.8471158,27.4553028 L59.8471158,27.4553028 Z M57.2103264,16.2781202 C57.1693824,16.4047226 57.0547394,16.4906313 56.821359,16.4906313 L55.9287812,16.4906313 C55.6444206,16.5124635 55.3587375,16.4988127 55.0771474,16.4499377 C55.0362035,16.4499377 54.9993539,16.4047226 54.95841,16.4047226 C54.917466,16.4047226 54.9215604,16.3188138 54.9215604,16.2781202 C54.9215604,16.2374266 54.9215604,16.1922114 54.8806165,16.1922114 L54.8806165,10.883954 C54.8593403,10.5818241 54.8730996,10.2779304 54.9215604,9.97965115 C54.9993539,9.80783362 55.1917904,9.72192485 55.4620204,9.72192485 L57.050645,9.72192485 C57.1626496,9.82671837 57.2208247,9.98563724 57.206232,10.1469472 L57.2103264,16.2781202 Z" id="Shape" fill="#333333" fill-rule="nonzero"></path>
                <path d="M70.2644694,26.0657651 L70.2644694,27.397405 C70.2700417,27.6448485 70.1826773,27.8794999 70.0319306,28.0219794 C69.7898036,28.1347874 69.5322173,28.1750112 69.2772761,28.1398237 L63.9815324,28.1398237 C63.7453502,28.1718401 63.5068363,28.1315493 63.2839157,28.0219794 C63.1479024,27.9218118 63.0820896,27.6684467 63.0820896,27.2795607 L63.0820896,25.9125676 C63.0820896,25.4176218 63.1566775,25.117119 63.3146284,25.0169514 C63.4101997,24.9621866 63.5135093,24.9360473 63.6173677,24.9403527 L64.0254076,24.9403527 L64.3325344,24.9403527 L69.768679,24.9403527 C69.9355255,24.9108129 70.1017816,25.0001221 70.2074316,25.1760411 C70.2587602,25.4672699 70.2779777,25.76704 70.2644694,26.0657651 L70.2644694,26.0657651 Z" id="Path" fill="#333333" fill-rule="nonzero"></path>
                <path d="M70.2435136,23.2452544 C70.1985368,23.1163162 70.1985368,22.867332 70.1130809,22.5694403 C70.0879512,22.4030843 70.0744262,22.2352167 70.0726019,22.0670258 C70.0276251,21.8980723 69.9466669,21.0977661 69.7307784,19.750584 C69.6453225,19.2437234 69.5193876,18.4434172 69.3889549,17.3896807 C69.2585223,16.3359442 69.0921083,15.4956227 69.0066524,14.9487468 C68.9211965,14.4018709 68.8357407,13.64158 68.6648289,12.5878435 C68.4939172,11.534107 68.412959,10.738247 68.3275032,10.1869249 C68.0711356,8.58631253 67.9856797,7.78600634 67.9856797,7.78600634 C67.9002239,7.45254542 67.814768,7.28359189 67.6843354,7.23913043 L65.64239,7.23913043 C65.5974132,7.23913043 65.5569341,7.28359189 65.5119574,7.28359189 C65.4669806,7.28359189 65.4714783,7.36806866 65.4265015,7.40808397 C65.3815247,7.44809928 65.3860224,7.53702219 65.3860224,7.5770375 L65.3860224,7.8704831 C65.3005665,8.25285162 65.2151107,9.05315782 65.0037199,10.2313864 C65.0037199,10.4403552 64.7878314,12.0098446 64.320073,14.9042854 C64.0232263,17.1273581 63.7668587,18.6968475 63.6409237,19.6216458 C63.470012,20.8443358 63.3395794,21.644642 63.2991003,22.0670258 C63.2991003,22.0670258 63.2136444,22.4449482 63.1281886,23.1607776 C63.0427327,23.6631921 63.0877095,23.9166224 63.1686676,24.0010991 C63.2096846,24.0534785 63.27258,24.0845659 63.3395794,24.0855759 C63.4066949,24.1178767 63.4808877,24.1331565 63.5554679,24.1300374 L64.7878314,24.1300374 C64.918264,24.1300374 65.0037199,24.0855759 65.1296548,24.0855759 C65.3680581,23.9639953 65.5161827,23.7193753 65.5119574,23.4542232 L65.5119574,23.3697465 C65.5119574,23.2452544 65.5119574,23.1607776 65.5569341,23.1163162 C65.6019109,23.0718547 65.5974132,23.0318394 65.64239,22.9918241 C65.7170658,22.9383527 65.8065623,22.9088623 65.8987576,22.9073473 L67.090642,22.9073473 C67.4324654,22.9073473 67.6033772,22.9073473 67.6438563,22.9473626 C67.6843354,22.9873779 67.7697912,23.0763009 67.814768,23.2452544 C67.9002239,23.6631921 67.9856797,23.9166224 68.1116147,24.0010991 C68.1748579,24.0474513 68.2493014,24.0765809 68.3275032,24.0855759 C68.4126949,24.0924765 68.4970306,24.1073639 68.5793731,24.1300374 L69.8162343,24.1300374 C69.9466669,24.0855759 70.0276251,24.0855759 70.1580577,24.0455606 C70.2884903,24.0055453 70.2839927,23.7076535 70.2435136,23.2452544 Z M67.4324654,20.2974599 C67.4324654,20.421952 67.3470096,20.5064287 67.1760979,20.5064287 L66.0471809,20.5064287 C65.9388163,20.3847141 65.9060692,20.2143357 65.9617251,20.0618142 C66.0471809,19.3059694 66.0921577,18.7590935 66.1326368,18.4612018 C66.3440276,16.9895276 66.4744602,16.1047446 66.5149393,15.6823608 C66.5554184,15.259977 66.6003952,15.0109928 66.6003952,14.9665314 L66.6003952,14.9220699 C66.645372,14.7131011 66.7308278,14.6686396 66.7713069,14.8375932 C66.7713069,14.8820546 66.8162837,15.0910235 66.8567628,15.5978841 C66.9017396,15.8513144 66.9422187,16.0424986 66.9871954,16.269252 C67.0276745,16.6071591 67.0681536,17.1584811 67.1536095,17.8698644 C67.2313512,18.2459359 67.2884055,18.6258982 67.3245212,19.0080777 C67.3245212,19.1770312 67.369498,19.3860001 67.4099771,19.7239071 C67.4504562,20.0618142 67.4729445,20.2574446 67.4324654,20.2974599 Z" id="Shape" fill="#333333" fill-rule="nonzero"></path>
                <path d="M97.3972542,7.47281302 C97.4326536,7.73347507 97.4224886,7.99878306 97.3672634,8.25557262 C97.3458413,8.47275447 97.3201349,8.80305187 97.2858597,9.2419402 C97.2697178,9.49393661 97.239676,9.74472465 97.1958872,9.99302745 C97.1230523,10.8346071 97.0073734,12.0064842 96.8574192,13.5041341 C96.8345691,13.7032174 96.6074957,16.0635619 96.1761989,20.5851674 C96.06052,21.8656354 95.9491255,23.0420371 95.8334466,24.1234218 C95.6620704,25.9664511 95.5678135,27.0357701 95.5506759,27.3313788 C95.5506759,27.783841 95.3964373,28.0507936 95.1522263,28.1141384 C94.9265636,28.1468586 94.6985184,28.1574612 94.471006,28.1458107 L92.881492,28.1458107 C92.65398,28.1576704 92.4259165,28.1470669 92.2002717,28.1141384 C91.9346386,28.0507936 91.7718312,27.783841 91.7718312,27.304231 C91.7718312,27.2650176 91.6675774,26.1655345 91.4590697,24.0057816 C91.3105437,22.2803925 91.1962929,21.1100236 91.1163174,20.494675 C91.1163174,20.494675 91.1163174,20.3996579 91.1163174,20.2684439 C91.1111911,20.1629388 91.1111911,20.0572255 91.1163174,19.9517204 C91.0777577,19.8295556 91.0391981,19.7707355 91.0006384,19.7707355 C90.9620788,19.7707355 90.9706476,19.8024078 90.9620788,19.8657525 C90.9555329,19.9289086 90.9555329,19.9926306 90.9620788,20.0557867 C90.9594447,20.1618049 90.9508609,20.267565 90.9363724,20.3725102 C90.9149503,20.6711352 90.8892439,20.9833342 90.8463999,21.3045823 C90.8121246,21.7570445 90.752143,22.3904916 90.6793081,23.2365959 C90.6064732,24.0827002 90.5550604,24.5939825 90.5336384,24.8111643 C90.5122163,25.0283462 90.4907943,25.2410034 90.4522347,25.6255963 C90.413675,26.0101891 90.3836842,26.3042896 90.3622622,26.5305207 C90.3279869,26.8653427 90.3022805,27.1413446 90.2808585,27.3359034 C90.2818112,27.5684812 90.2225505,27.7969104 90.1094823,27.9964982 C89.9299912,28.10948 89.722558,28.1630639 89.5139501,28.1503353 L88.6485004,28.1503353 C87.5859681,28.1503353 87.0461332,28.1503353 87.0289956,28.118663 C86.943774,28.1202111 86.8596297,28.0983853 86.7847845,28.0553183 C86.7281956,28.0242904 86.6762283,27.9846541 86.6305459,27.9376781 C86.583242,27.8770463 86.5495525,27.8058895 86.5320046,27.7295455 C86.5086873,27.6610307 86.4942746,27.5894933 86.4891606,27.5168883 C86.4891606,27.4806913 86.4891606,27.3947235 86.4891606,27.2635094 C86.4891606,27.1322954 86.4891606,27.0599014 86.4891606,27.0372783 C86.4891606,26.8970151 86.450601,26.7069809 86.4334633,26.4717006 C86.4163257,26.2364202 86.3949037,26.0192384 86.3777661,25.820155 C86.3606285,25.6210717 86.334922,25.449136 86.3220688,25.2681511 C85.7508149,19.4072575 85.2952399,14.6971261 84.9553438,11.1377568 C84.9553438,10.9386734 84.9082154,10.6355238 84.8696557,10.2328324 C84.8310961,9.83014106 84.8011053,9.54508987 84.7882521,9.364105 C84.7827894,9.19298132 84.7684868,9.02230004 84.745408,8.85282272 C84.7154172,8.63111624 84.6939952,8.4365575 84.6725731,8.25557262 C84.6525593,8.0859656 84.642543,7.91520923 84.6425823,7.74429034 C84.6342606,7.6041425 84.6919784,7.46868936 84.7968209,7.38232058 C84.8818609,7.31528011 84.9798858,7.26892743 85.083876,7.24658192 C85.1695641,7.24658192 85.3123775,7.24658192 85.5123164,7.24658192 L86.2235275,7.24658192 C86.4373075,7.21575286 86.6534952,7.28145326 86.8190597,7.4275668 C86.913485,7.55704951 86.9633496,7.71662662 86.9604451,7.880029 C86.9604451,7.97957068 86.9990047,8.1288832 87.0204267,8.33249119 C87.0418488,8.53609918 87.0461332,8.64921473 87.0461332,8.68993633 C87.1618121,9.81204257 87.2175094,10.3911942 87.2175094,10.4319158 C87.3660354,11.9129754 87.4802862,13.0939017 87.5602617,13.9746948 C87.6145308,14.5960762 87.7187847,15.7000839 87.8730232,17.286718 C88.0229774,18.879385 88.1429407,20.1010329 88.241482,20.9607111 C88.241482,21.0647774 88.241482,21.1869422 88.241482,21.3362547 C88.241482,21.4855672 88.262904,21.6303551 88.2757572,21.7570445 C88.2886105,21.8837339 88.2757572,22.014948 88.3143169,22.1325881 C88.3528765,22.2502283 88.3614453,22.4040655 88.400005,22.4040655 C88.4385646,22.4040655 88.4685554,22.2999992 88.4856931,22.1009158 C88.4856931,22.0255054 88.5713811,21.0753348 88.7427573,19.250404 C88.8570081,18.1494126 89.0840815,15.7890682 89.4239776,12.1693706 C89.5953538,10.4681128 89.7096046,9.31885878 89.76673,8.72160868 C89.7630145,8.65228662 89.7630145,8.58279813 89.76673,8.51347607 C89.7703339,8.44264141 89.7703339,8.3716535 89.76673,8.30081884 C89.7610816,8.23156952 89.7610816,8.16193555 89.76673,8.09268623 C89.7705898,8.02185909 89.7705898,7.95085614 89.76673,7.880029 C89.76673,7.880029 89.76673,7.81215967 89.76673,7.73524109 C89.7700159,7.66892534 89.7700159,7.60247349 89.76673,7.53615773 C89.7689986,7.48339269 89.7837268,7.43206461 89.809574,7.3868452 C89.8388494,7.33665124 89.8846063,7.29960408 89.9381061,7.2827789 C89.9595282,7.26015579 90.032363,7.26015579 90.169464,7.2827789 L92.0717395,7.2827789 C92.1137845,7.33313583 92.1432404,7.39379524 92.1574276,7.45923916 C92.1798617,7.62857297 92.1884622,7.79963087 92.183134,7.97052144 C92.183134,8.15150631 92.2302625,8.42298363 92.2688221,8.82567498 C92.3073818,9.22836634 92.3373726,9.51341752 92.3545102,9.73059937 C92.3887855,10.069946 92.4316295,10.4454896 92.4659047,10.8527056 C92.50018,11.2599216 92.543024,11.6852361 92.5815837,12.1150751 C92.6201433,12.5449142 92.6544185,12.9204578 92.6972626,13.2371814 C93.1114217,17.4601619 93.3384951,19.8205063 93.3784829,20.3182147 C93.3784829,20.3996579 93.3784829,20.6349383 93.4341801,21.0240558 C93.4898774,21.4131732 93.4984462,21.7208475 93.5198682,21.9289802 C93.5335257,22.0886089 93.5803368,22.2430954 93.6569692,22.3814423 C93.6569692,22.3814423 93.6912444,22.3045238 93.6912444,22.1416374 L93.6912444,22.0330465 C93.6871291,22.0045553 93.6871291,21.9755698 93.6912444,21.9470786 C93.6957089,21.9125501 93.6957089,21.8775409 93.6912444,21.8430123 L93.6912444,21.7525199 C93.7126664,21.5489119 93.7383728,21.2502869 93.7769325,20.8475955 C93.8497674,20.2458208 93.909749,19.6666692 93.9483087,19.1056161 C94.3481864,15.0244071 94.5752598,12.6746201 94.629529,12.0562551 C94.8180427,10.1378153 94.9337217,8.94783978 94.9679969,8.48632834 C94.9679969,8.44560674 94.9679969,8.35963892 94.9679969,8.23294951 C94.9679969,8.10626009 94.9679969,7.99766917 94.9937033,7.91622597 C95.0062474,7.82447178 95.0248587,7.73375758 95.0494006,7.64474866 C95.0750587,7.55483068 95.1205812,7.4726382 95.1822171,7.40494369 C95.2449738,7.34249182 95.3241142,7.30149146 95.4092906,7.28730352 L96.1462081,7.28730352 L96.5189513,7.28730352 L96.8874101,7.28730352 C97.1958872,7.25563117 97.3458413,7.33254974 97.3972542,7.47281302 Z" id="Path" fill="#333333" fill-rule="nonzero"></path>
                <path d="M106.93331,25.4671921 C106.977061,25.8662611 106.997489,26.2695504 106.994396,26.6731508 C107.013787,27.0635135 106.98276,27.4555302 106.902767,27.8308712 C106.797259,28.038043 106.623496,28.1581082 106.440259,28.1504502 L100.510556,28.1504502 C100.364618,28.156997 100.218553,28.1448858 100.074228,28.1142715 C99.8996966,28.0057352 99.8167942,27.6680667 99.8167942,27.1133257 L99.8167942,26.0822311 C99.8235368,25.9960552 99.8235368,25.9091258 99.8167942,25.8229499 C99.8123124,25.742672 99.8123124,25.6620362 99.8167942,25.5817582 C99.8641521,25.3645243 99.9548925,25.1701579 100.078591,25.0209874 C100.286356,24.9464861 100.501609,24.9199993 100.715631,24.9426001 L106.038837,24.9426001 C106.270538,24.9267952 106.5028,24.940926 106.732599,24.9848087 C106.856584,25.0851564 106.932924,25.268631 106.93331,25.4671921 L106.93331,25.4671921 Z" id="Path" fill="#333333" fill-rule="nonzero"></path>
                <path d="M99.8156155,9.21198194 L99.8156155,8.48141989 C99.8065889,8.2540919 99.8255837,8.02650838 99.8721558,7.80398963 C99.9538001,7.52224526 100.19067,7.31580194 100.476702,7.27709942 C100.677205,7.25176637 100.87926,7.24140751 101.081248,7.24610588 L106.069842,7.24610588 C106.28345,7.22674868 106.498732,7.24776426 106.704833,7.30809296 C106.822263,7.34351415 106.90055,7.49405421 106.935344,7.75085784 C106.970138,8.00766147 106.970138,8.32645218 106.970138,8.60096641 L106.970138,8.9817442 C106.970138,9.02602069 106.970138,9.08358012 106.970138,9.15885015 C106.965213,9.21990311 106.950522,9.27972664 106.926645,9.3359561 C106.901764,9.38288551 106.872643,9.427354 106.83966,9.46878557 C106.804815,9.51399238 106.760155,9.5503648 106.709183,9.57504914 L106.522165,9.63260857 L103.264574,9.63260857 C103.197952,9.63690265 103.13113,9.63690265 103.064508,9.63260857 L102.847045,9.63260857 L102.655678,9.63260857 C102.585922,9.64110232 102.51819,9.66208783 102.455613,9.69459566 C102.397185,9.72330962 102.344184,9.76227816 102.299039,9.80971452 C102.25062,9.85672408 102.215987,9.9165081 102.199007,9.98239283 C102.166339,10.2021089 102.154686,10.4245332 102.164213,10.6465401 L102.164213,13.2278594 C102.164213,13.2278594 102.164213,13.3474059 102.164213,13.5245119 C102.150771,13.651069 102.150771,13.7787325 102.164213,13.9052896 C102.176441,14.0022772 102.204364,14.0965333 102.246848,14.1842315 C102.292428,14.2877707 102.368398,14.3743911 102.464311,14.4321799 C102.6021,14.4924473 102.749429,14.5269439 102.899236,14.5340158 C103.092445,14.5438897 103.286137,14.5349942 103.477687,14.5074499 C103.634656,14.4819256 103.792943,14.4656637 103.951756,14.4587457 L104.760717,14.4587457 C104.9542,14.4507791 105.145441,14.5033139 105.308723,14.6092858 C105.401124,14.7378299 105.451348,14.8927671 105.452248,15.0520507 L105.452248,16.2386606 C105.452248,16.2652264 105.452248,16.3139306 105.452248,16.384773 C105.448613,16.4403739 105.43381,16.4946243 105.408756,16.5441683 L105.352216,16.6814254 C105.334546,16.7282631 105.298191,16.7652732 105.252183,16.7832614 L105.09126,16.8408208 C104.871935,16.8674638 104.650879,16.8763469 104.430174,16.8673867 C104.086583,16.8673867 103.795183,16.8673867 103.560323,16.8408208 L103.255875,16.8408208 L102.881839,16.8408208 C102.784434,16.8437803 102.687872,16.860164 102.594789,16.8895249 C102.487073,16.9058596 102.389296,16.9627391 102.320786,17.0489203 C102.208447,17.187497 102.155203,17.3660502 102.172911,17.5448169 L102.172911,20.923113 C102.148577,21.127164 102.189773,21.3337524 102.290341,21.5119903 C102.388828,21.6399857 102.539461,21.7150285 102.699171,21.7156621 L105.956762,21.7156621 C106.207531,21.7000097 106.459224,21.719376 106.704833,21.7732215 C106.853955,21.8260975 106.955871,21.9667787 106.961439,22.1274334 C106.995151,22.4005162 107.006788,22.6759551 106.996233,22.9509761 C107.005831,23.1950649 106.994188,23.4395395 106.961439,23.6815382 C106.955871,23.8421929 106.853955,23.9828741 106.704833,24.0357501 C106.487333,24.0924377 106.263903,24.1221707 106.039398,24.124303 L105.795839,24.124303 C105.708854,24.124303 105.61752,24.124303 105.521836,24.124303 L105.291326,24.124303 L101.137789,24.124303 C100.858164,24.141603 100.577514,24.1222582 100.302732,24.0667436 C99.9939349,23.9471971 99.8417111,23.5797022 99.8417111,22.9509761 L99.8417111,9.21198194 L99.8156155,9.21198194 Z" id="Path" fill="#333333" fill-rule="nonzero"></path>
                <path d="M76.5384399,17.6956522 C76.4240085,17.6950638 76.3101959,17.6783802 76.2001811,17.6460675 C75.703382,17.4420652 75.4268844,16.8957155 75.5500214,16.361374 L76.6087275,12.9986325 C75.9932434,13.4165965 75.2280053,13.5306605 74.5220661,13.3096636 C74.3938598,13.2745722 74.2958447,13.1683784 74.2686599,13.0351122 C74.2414752,12.9018461 74.2897559,12.7642305 74.3934839,12.6793238 C74.497212,12.594417 74.6387009,12.5766963 74.7592865,12.6335091 C75.1985837,12.8002939 76.2704687,12.7822631 77.0348457,11.5201081 C77.3994623,9.96044514 78.2560917,7.22878112 78.2912355,7.11608871 C78.3903736,6.8520924 78.5879108,6.63949152 78.8401694,6.52529454 C79.092428,6.41109755 79.3786271,6.40471196 79.6354848,6.5075497 C80.1977851,6.70588834 80.4437915,7.19722725 80.364718,7.96353564 C80.2944305,8.65772088 79.6179129,10.5103841 78.9677531,11.1189231 C78.61852,11.4402518 78.199978,11.6719816 77.7465071,11.7950776 L77.3072099,13.169925 C77.8475454,13.3322021 78.9150375,13.4178483 79.9913154,11.3668464 C80.0858119,11.1927269 80.2989218,11.1285286 80.4701493,11.2226001 C80.637653,11.3193546 80.6983245,11.5362464 80.6063314,11.7094313 C79.6618426,13.5125099 78.6075295,13.9632796 77.7069703,13.9317257 C78.2646455,14.8491068 78.2526468,16.0152339 77.6762195,16.9203284 C77.4672387,17.3759985 77.0288064,17.674762 76.5384399,17.6956522 L76.5384399,17.6956522 Z M76.217753,16.5326665 C76.217753,16.5326665 76.1826092,16.8887745 76.4022578,16.95639 C76.4989032,16.9879438 76.7580885,17.0645747 77.0699895,16.5642204 C77.1051332,16.5011126 77.8826892,15.2119115 76.9689511,14.1751413 L76.217753,16.5326665 Z M78.9370023,7.40458128 C78.9370023,7.40458128 78.3044144,9.43755236 77.8958681,10.9791845 C78.1156296,10.8823307 78.3188241,10.7499249 78.4977052,10.5870149 C78.9941109,10.1362453 79.6135199,8.46388994 79.6662356,7.90493558 C79.7189512,7.34598123 79.6091269,7.27385809 79.4070502,7.20173495 C79.3197268,7.1543097 79.2162713,7.14959912 79.1251974,7.18890151 C79.0341235,7.22820391 78.9650455,7.30737024 78.9370023,7.40458128 L78.9370023,7.40458128 Z" id="Shape" fill="#333333" fill-rule="nonzero"></path>
                <path d="M73.0835151,13.6736706 C72.5089624,13.683163 71.9604931,13.4135188 71.5877641,12.9383141 C71.1489709,12.3400976 70.9754646,11.561977 71.1136068,10.8118693 C71.3463749,9.29431837 72.5748735,8.05311159 73.8464773,8.043744 L73.8464773,8.043744 C74.418953,8.03383114 74.9657056,8.3016911 75.3379177,8.77441666 C75.7761686,9.37292161 75.9496136,10.1507671 75.8120751,10.9008615 C75.5749964,12.4184124 74.3508083,13.6596192 73.0792045,13.6736706 L73.0835151,13.6736706 Z M73.8680299,8.78846806 L73.8680299,8.78846806 C72.9154047,8.78846806 71.9886426,9.75801449 71.8076007,10.9336481 C71.7050318,11.4673205 71.8214869,12.0230697 72.1265793,12.4558828 C72.3679226,12.763527 72.7245661,12.9357615 73.0964466,12.9242627 L73.0964466,12.9242627 C74.0490718,12.9242627 74.9758339,11.9547163 75.1568758,10.7790827 L75.1568758,10.7790827 C75.2611037,10.2461727 75.1427205,9.69047011 74.8335867,9.26153178 C74.5944201,8.95288417 74.2392536,8.77887433 73.8680299,8.78846806 L73.8680299,8.78846806 Z" id="Shape" fill="#333333" fill-rule="nonzero"></path>
                <line x1="43.119403" y1="2.01086957" x2="107" y2="2.01086957" id="Path" stroke="#333333" stroke-width="0.8192" stroke-linecap="round"></line>
                <path d="M93.4253731,36.6522841 L95.0707825,35.3856049 C95.7653843,34.8441616 96.0158965,34.5361847 96.0158965,34.1437625 C96.0177975,33.9355731 95.9210837,33.7359381 95.7486175,33.5920497 C95.5761513,33.4481612 95.3432404,33.3727906 95.1049432,33.3837549 C94.5889664,33.405331 94.1249908,33.6644816 93.8865432,34.0642846 L93.510775,33.8258508 C93.8259101,33.2952044 94.4599772,32.9675224 95.1447974,32.981398 C95.5046135,32.958097 95.8595058,33.0653561 96.1256989,33.277856 C96.391892,33.4903559 96.5457964,33.7892651 96.5510815,34.1040235 L96.5510815,34.1040235 C96.5510815,34.6802384 96.1980871,35.037889 95.4123899,35.6439081 L94.2110703,36.5926757 L96.619403,36.5926757 L96.619403,37 L93.448147,37 L93.4253731,36.6522841 Z" id="Path" fill="#333333" fill-rule="nonzero"></path>
                <path d="M96.619403,34.9940231 L96.619403,34.9940231 C96.619403,33.9029673 97.2506154,32.9782609 98.2235368,32.9782609 C99.1964583,32.9782609 99.8134328,33.8931821 99.8134328,34.9842378 L99.8134328,34.9842378 C99.8134328,36.0752936 99.1869664,37 98.2140449,37 C97.2411235,37 96.619403,36.0899714 96.619403,34.9940231 Z M99.3720587,34.9940231 L99.3720587,34.9940231 C99.3720587,34.142706 98.8974629,33.3794563 98.2140449,33.3794563 C97.530627,33.3794563 97.0607771,34.1231355 97.0607771,34.9842378 L97.0607771,34.9842378 C97.0607771,35.8355549 97.5353729,36.5988046 98.2235368,36.5988046 C98.9117008,36.5988046 99.3720587,35.8502327 99.3720587,34.9940231 Z" id="Shape" fill="#333333" fill-rule="nonzero"></path>
                <path d="M99.6348777,36.6614153 L101.292103,35.3917228 C101.991693,34.8489914 102.249739,34.5402819 102.249739,34.1469261 C102.251751,33.9373264 102.153565,33.7363883 101.97858,33.5919967 C101.803595,33.4476051 101.567482,33.3726924 101.326509,33.3851106 C100.807194,33.4077366 100.34041,33.6672129 100.09936,34.0672592 L99.7208928,33.8282582 C100.03932,33.2971943 100.67727,32.9690773 101.36665,32.9817965 C101.72946,32.9569414 102.087879,33.0639409 102.356383,33.2772633 C102.624887,33.4905858 102.779392,33.7910977 102.783033,34.1070926 L102.783033,34.1070926 C102.783033,34.6846783 102.433238,35.0431797 101.636164,35.6506405 L100.414749,36.5917067 L102.80597,36.5917067 L102.80597,37 L99.6119403,37 L99.6348777,36.6614153 Z" id="Path" fill="#333333" fill-rule="nonzero"></path>
                <path d="M104.66456,37 L104.66456,33 L104.306017,33 C104.171563,33.1512605 104.0147,33.2857143 103.824224,33.4089636 C103.633748,33.5210084 103.443272,33.5994398 103.264,33.6498599 L103.264,34.1092437 C103.63935,33.9971989 103.953076,33.8179272 104.205176,33.5602241 L104.205176,37 L104.66456,37 Z" id="1" fill="#333333" fill-rule="nonzero"></path>
                <path d="M21.3699666,13.9660256 L21.3699666,13.9660256 L21.195177,13.8275836 L21.1503592,13.7952805 L20.9621243,13.666068 L20.8859339,13.6153059 L20.7738894,13.546085 L20.6663266,13.4860934 L20.5856545,13.4399461 L20.3526017,13.3245778 L20.3077839,13.3245778 C20.2584843,13.2968894 20.2047029,13.2784305 20.1554033,13.2553568 L20.1554033,13.2553568 L19.9850955,13.1907506 L19.9850955,22.5217391 L20.1554033,22.4571329 L20.1554033,22.4571329 L20.3122657,22.3925266 L20.3570835,22.3925266 L20.594618,22.2771583 L20.6708083,22.231011 L20.7783711,22.1710195 L20.8904157,22.1017985 L20.966606,22.0510364 C21.029351,22.0141186 21.092096,21.9679713 21.154841,21.9264387 L21.1996588,21.8895208 L21.3744483,21.7510788 L21.3744483,21.7510788 C22.0760692,21.1734255 22.6082331,20.4066148 22.9117,19.5360074 L29.4326949,19.5360074 C29.5061444,18.9869964 29.5435774,18.4335128 29.5447761,17.8793185 C29.558885,12.1418489 25.4761566,7.2655524 19.9626866,6.43478261 L19.9626866,9.76200454 C23.1010245,10.426076 25.554134,12.9501407 26.2013291,16.1810971 L22.9072183,16.1810971 C22.6037513,15.3104896 22.0715874,14.5436789 21.3699666,13.9660256 L21.3699666,13.9660256 Z" id="Path" fill="#333333" fill-rule="nonzero"></path>
                <path d="M15.9701493,22.2328569 L15.9701493,12.8695652 C14.6000051,13.3713778 13.5219267,14.4814321 13.0345692,15.8922148 L6.50458425,15.8922148 C5.6211953,22.1895071 9.85602643,28.0343915 15.9701493,28.9565217 L15.9701493,25.6292998 C12.8317985,24.9652283 10.3786791,22.4411637 9.73148141,19.2102073 L13.0345692,19.2102073 C13.5219267,20.62099 14.6000051,21.7310444 15.9701493,22.2328569 Z" id="Path" fill="#333333" fill-rule="nonzero"></path>
                <path d="M0,17.6979177 C0.00145147751,26.882651 6.92468107,34.5529224 15.9701493,35.3913043 L15.9701493,32.1607321 C9.3064455,31.4077712 4.03971306,26.1017216 3.27069046,19.3664693 C2.50166785,12.631217 6.43410558,6.2512492 12.7528184,3.98271112 L12.7528184,7.4851408 C10.4480552,8.60353903 8.58926466,10.4830684 7.48320686,12.8135461 L11.1934436,12.8135461 C12.3653244,11.24285 14.0638083,10.1585787 15.9701493,9.76421212 L15.9701493,0 C6.92297016,0.838540632 -0.000864702269,8.51144696 0,17.6979177 L0,17.6979177 Z" id="Path" fill="#A67C52" fill-rule="nonzero"></path>
                <path d="M19.9626866,0 L19.9626866,3.23057227 C26.6311789,3.98385363 31.901598,9.29181174 32.67093,16.0293312 C33.4402619,22.7668506 29.5046653,29.1487646 23.1812634,31.4176551 L23.1812634,27.9061635 C25.4869191,26.7877653 27.3464295,24.908236 28.4529156,22.5777582 L24.7457248,22.5777582 C23.5708688,24.1478216 21.8706165,25.2317847 19.9626866,25.6270922 L19.9626866,35.3913043 C29.0100654,34.5498121 35.9328358,26.8790674 35.9328358,17.6956522 C35.9328358,8.51223694 29.0100654,0.841492293 19.9626866,0 Z" id="Path" fill="#A67C52" fill-rule="nonzero"></path>
                <line x1="90.2313433" y1="33.3804348" x2="42.3208955" y2="33.3804348" id="Path" stroke="#333333" stroke-width="0.8192" stroke-linecap="round"></line>
            </g>
        </g>
    </g>
</svg>