<svg xmlns="http://www.w3.org/2000/svg" width="217" height="139" viewBox="0 0 217 139">
    <g fill="none" fill-rule="evenodd" stroke-linecap="round" stroke-linejoin="round">
        <g stroke="#A88057">
            <g stroke-width="1.5">
                <g>
                    <path d="M4.7.9L.8 4.8M4.7 4.8L.8.9" transform="translate(-614 -262) translate(611 263) translate(28 20.5)"/>
                </g>
                <g>
                    <path d="M4.6.8L.7 4.8M4.6 4.8L.7.8" transform="translate(-614 -262) translate(611 263) translate(170 82.5)"/>
                </g>
                <path d="M195 8.522c1.488-.185 2.778.83 2.977 2.212.198 1.383-.893 2.582-2.382 2.766M82 11.184c-1.328.698-2.961.2-3.676-1.096-.715-1.296-.205-2.89 1.123-3.588M137 103L219 103M5 103L31 103" transform="translate(-614 -262) translate(611 263)"/>
                <g>
                    <g>
                        <g>
                            <g>
                                <path d="M.461.093L22.136 0c4.243 0 7.747 3.532 7.747 7.901l.093 25.378c0 4.369-3.413 7.901-7.748 7.901l-21.675.093M30.252 5.67h12.82c3.413 0 6.088 2.79 6.088 6.229v17.383c0 3.44-2.675 6.228-6.087 6.228h-12.82" transform="translate(-614 -262) translate(611 263) translate(37 70.5) translate(7.379) translate(11.99)"/>
                                <path d="M49.16 17.011h2.122c1.936 0 3.504 1.58 3.597 3.626h0c0 1.952-1.568 3.625-3.505 3.625h-2.122" transform="translate(-614 -262) translate(611 263) translate(37 70.5) translate(7.379) translate(11.99)"/>
                                <g>
                                    <path d="M1.291 11.992L1.291.651M5.534 11.992L5.442.651" transform="translate(-614 -262) translate(611 263) translate(37 70.5) translate(7.379) translate(11.99) translate(35.97 17.662)"/>
                                </g>
                            </g>
                            <path d="M.553 10.969V8.366C.553 3.904 4.15.28 8.578.28h4.98c4.427 0 8.025 3.625 8.025 8.087v24.82c0 4.462-3.598 8.087-8.025 8.087h-4.98c-4.428 0-8.025-3.625-8.025-8.087v-1.209M.553 26.307L.553 15.803M21.767 17.383L29.607 17.383 29.607 22.031 21.767 22.031" transform="translate(-614 -262) translate(611 263) translate(37 70.5) translate(7.379)"/>
                        </g>
                        <path d="M18.908 15.803H2.675c-1.292 0-2.306-1.023-2.306-2.324h0c0-1.302 1.014-2.324 2.306-2.324H19M18.908 31.792H2.675c-1.292 0-2.306-1.023-2.306-2.324h0c0-1.302 1.014-2.324 2.306-2.324H19" transform="translate(-614 -262) translate(611 263) translate(37 70.5)"/>
                    </g>
                    <path d="M74.155 20.544h6.918C88.728 20.544 95 26.772 95 34.58h0c0 7.716-6.18 14.037-13.927 14.037h-67.7c-3.043 0-5.441 2.417-5.441 5.484h0c0 3.068 2.398 5.485 5.442 5.485h47.13c3.506 0 6.273 2.789 6.273 6.321h0" transform="translate(-614 -262) translate(611 263) translate(37 70.5)"/>
                </g>
                <g>
                    <path d="M42.044 53.534H3.496c-1.84 0-3.312-1.49-3.312-3.351V4.003C.184 2.141 1.656.652 3.496.652h38.548c1.84 0 3.312 1.49 3.312 3.351v46.273c0 1.769-1.472 3.258-3.312 3.258z" transform="translate(-614 -262) translate(611 263) translate(131 14.5)"/>
                    <path d="M13.34 23.555h0c-1.656 0-2.944-1.303-2.944-2.98v-2.42c0-1.676 1.288-2.98 2.944-2.98h0c1.656 0 2.944 1.304 2.944 2.98v2.42c0 1.584-1.288 2.98-2.944 2.98zM32.2 23.555h0c-1.656 0-2.944-1.303-2.944-2.98v-2.42c0-1.676 1.288-2.98 2.944-2.98h0c1.656 0 2.944 1.304 2.944 2.98v2.42c0 1.584-1.288 2.98-2.944 2.98zM22.908 42.083h0c-1.656 0-2.944-1.304-2.944-2.98v-5.12c0-1.676 1.288-2.98 2.944-2.98h0c1.656 0 2.944 1.304 2.944 2.98v5.12c0 1.676-1.288 2.98-2.944 2.98z" transform="translate(-614 -262) translate(611 263) translate(131 14.5)"/>
                </g>
                <g>
                    <path d="M3.714.183L7.8 9.533M11.329 8.25L12.536 3.392M.093 8.708L4.364 10.817" transform="translate(-614 -262) translate(611 263) translate(119 .5)"/>
                </g>
                <g>
                    <path d="M28.142 1.3L32.542 1.3M.825 1.3L23.467 1.3" transform="translate(-614 -262) translate(611 263) translate(105 128.5)"/>
                </g>
                <g transform="translate(-614 -262) translate(611 263) translate(67 38.5)">
                    <ellipse cx="7.682" cy="8.611" rx="6.889" ry="4.71" transform="rotate(-61.438 7.682 8.611)"/>
                    <path d="M4.8 14.733c2.07-.566 3.106-2.927 2.541-4.91-.47-1.417-.847-2.645-.094-4.062.659-1.322 2.07-3.589 3.859-3.117"/>
                </g>
                <g transform="translate(-614 -262) translate(611 263) translate(0 48.5)">
                    <ellipse cx="13.487" cy="12.839" rx="7.324" ry="10.572" transform="rotate(-41.652 13.487 12.84)"/>
                    <path d="M6.185 5.479c-.278 3.25 2.593 6.128 5.74 6.221 2.316.093 4.26.186 6.02 1.95 1.574 1.579 4.166 4.921 2.592 7.243"/>
                </g>
            </g>
        </g>
    </g>
</svg>
