<svg xmlns="http://www.w3.org/2000/svg" width="230" height="123" viewBox="0 0 230 123">
    <g fill="none" fill-rule="evenodd" stroke-linecap="round" stroke-linejoin="round">
        <g stroke="#A88057" stroke-width="1.5">
            <g>
                <path d="M58.57 75.425h-9.876v15.409H29.455V75.425H.766V60.187l26.39-40.522h21.538v40.522h9.876v15.238zM29.455 60.187V39.245l-13.28 20.942h13.28zM223.467 75.425h-9.876v15.409h-19.324V75.425h-28.689V60.187l26.39-40.522h21.538v40.522h9.875v15.238h.086zm-29.2-15.238V39.245l-13.28 20.942h13.28zM157.235 118.927h-28.433c-1.958 0-3.49-1.533-3.49-3.49h0c0-1.959 1.532-3.49 3.49-3.49h28.433c1.958 0 3.49 1.531 3.49 3.49h0c0 1.957-1.532 3.49-3.49 3.49zM163.705 95.005H96.197c1.362-.51 2.299-1.788 2.299-3.32 0-.936-.426-1.873-1.022-2.469-.596-.596-1.532-1.021-2.469-1.021H66.487c-1.958 0-3.49 1.532-3.49 3.49 0 1.958 1.532 3.49 3.49 3.49h7.065c-1.362.511-2.298 1.788-2.298 3.32 0 1.703 1.192 3.065 2.724 3.406h-4.342c-2.809 0-5.022 2.213-5.022 5.022 0 2.81 2.213 5.023 5.022 5.023h70.914c2.81 0 5.022-2.213 5.022-5.023 0-2.468-1.787-4.511-4.086-4.937h22.304c1.958 0 3.49-1.532 3.49-3.49-.084-1.873-1.617-3.49-3.575-3.49z" transform="translate(-606 -276) translate(606 277)"/>
                <g>
                    <g>
                        <g>
                            <path d="M3.575 9.024h0l37.713 5.193c11.408 1.617 19.665 11.663 18.984 23.155h0c-.68 11.493-10.215 20.602-21.708 20.687L.68 58.484M15.92 10.641c-2.47-3.66-1.703-6.98 1.106-8.938h0c.255-.17.596-.34.936-.511h.086c.255-.17.595-.256.936-.426.085 0 .085 0 .17-.085.681-.255 1.447-.426 2.299-.51h.255c.34 0 .681-.086 1.107-.086h.255c.426 0 .852 0 1.277.085h.256c.34 0 .766.085 1.106.17.17 0 .256 0 .426.086.426.085.936.17 1.447.34 8.173 2.214 13.28 9.024 15.834 13.366" transform="translate(-606 -276) translate(606 277) translate(87.684 36.606) translate(7.662)"/>
                            <path d="M20.601 10.897c-1.617-2.299-1.021-4.512.767-5.704h0c.17-.085.425-.255.596-.34h.085c.17-.086.425-.17.596-.256h.085c.425-.17.936-.255 1.447-.34h.17c.256 0 .426 0 .681-.086h1.192c.255 0 .426.086.681.086h.256c.34.085.595.085.936.17 5.278 1.362 8.853 6.47 10.47 9.279" transform="translate(-606 -276) translate(606 277) translate(87.684 36.606) translate(7.662)"/>
                        </g>
                        <path d="M1.788 51.333C.34 46.566-.255 40.011.34 32.775 1.447 19.07 6.555 8.428 11.663 8.94c5.108.51 8.343 12.088 7.236 25.794-1.022 12.003-5.023 21.623-9.45 23.496" transform="translate(-606 -276) translate(606 277) translate(87.684 36.606)"/>
                    </g>
                    <path d="M29.966 11.578s9.96 17.536-.852 46.651M36.946 52.27c-.51 1.873-1.191 3.746-1.872 5.704M38.82 44.097c-.341 1.873-.767 3.746-1.278 5.79M35.67 12.514s6.129 11.067 3.49 29.625M5.193 51.589c-1.788-3.32-2.469-10.556-1.618-18.729 1.107-11.067 4.683-19.835 7.918-19.495 3.235.34 5.022 9.62 3.916 20.687-.852 8.513-3.15 15.579-5.619 18.303" transform="translate(-606 -276) translate(606 277) translate(87.684 36.606)"/>
                </g>
                <path d="M57.207 90.919L58.825 90.919M7.491 90.919L54.483 90.919M225.935 90.919L228.83 90.919M178.688 90.919L222.36 90.919" transform="translate(-606 -276) translate(606 277)"/>
                <g>
                    <path d="M3.746.17L.681 3.235M3.746 3.235L.681.17" transform="translate(-606 -276) translate(606 277) translate(74.063 25.539)"/>
                </g>
                <g>
                    <path d="M3.235.255L.17 3.32M3.235 3.32L.17.255" transform="translate(-606 -276) translate(606 277) translate(165.152 15.323)"/>
                </g>
                <g>
                    <path d="M3.49.426L.426 3.49M3.49 3.49L.426.426" transform="translate(-606 -276) translate(606 277) translate(196.65 103.859)"/>
                </g>
                <g>
                    <path d="M3.575.681L.511 3.746M3.575 3.746L.511.681" transform="translate(-606 -276) translate(606 277) translate(38.309 116.628)"/>
                </g>
                <path d="M42.65 2.213c0-1.191.937-2.128 2.128-2.128 1.192 0 2.129.937 2.129 2.128M120.8 2.894c1.191-.17 2.213.681 2.298 1.873.17 1.192-.68 2.214-1.873 2.299M188.478 119.012L190.181 119.012M182.349 119.012L186.009 119.012M152.128 119.012L180.135 119.012M52.61 112.031L50.567 112.031M72.105 112.031L54.994 112.031" transform="translate(-606 -276) translate(606 277)"/>
            </g>
        </g>
    </g>
</svg>
