<svg xmlns="http://www.w3.org/2000/svg" xmlns:xlink="http://www.w3.org/1999/xlink" width="24" height="24" viewBox="0 0 24 24">
    <defs>
        <circle id="1jpgpo5lda" cx="12" cy="12" r="12"/>
    </defs>
    <g fill="none" fill-rule="evenodd">
        <g>
            <g>
                <g>
                    <g transform="translate(-204 -732) translate(148 268) translate(32 440) translate(24 24)">
                        <mask id="iobrdbrqgb" fill="#fff">
                            <use xlink:href="#1jpgpo5lda"/>
                        </mask>
                        <use fill="#FFF" xlink:href="#1jpgpo5lda"/>
                        <g stroke="#80460B" stroke-linecap="round" stroke-linejoin="round" stroke-width=".8" mask="url(#iobrdbrqgb)">
                            <g>
                                <path d="M8.28 6.84l1.24 2.48c.04.12.16.2.32.24l2.72.4c.32.04.48.44.24.68l-2 1.92c-.08.08-.12.24-.12.36l.48 2.72c.04.32-.28.6-.6.44L8.12 14.8c-.12-.08-.24-.08-.36 0l-2.44 1.28c-.28.16-.64-.08-.6-.44l.48-2.72c.04-.12-.04-.28-.12-.36l-1.96-1.92c-.28-.24-.16-.64.16-.68L6 9.56c.12 0 .24-.12.32-.24l1.24-2.48c.16-.28.56-.28.72 0zM13.08.16l.72 1.44c.04.08.12.12.16.12L15.6 2c.2.04.28.28.12.4l-1.16 1.12c-.04.04-.08.12-.08.2l.28 1.6c.04.2-.16.36-.36.24l-1.44-.76c-.08-.04-.16-.04-.24 0l-1.4.8c-.16.08-.36-.04-.36-.24l.28-1.6c0-.08 0-.16-.08-.2L10.04 2.4c-.16-.12-.08-.36.12-.4l1.6-.24c.08 0 .16-.04.16-.12L12.64.2c.12-.2.36-.2.44-.04zM3.48.16L4.2 1.6c.04.08.12.12.16.12l1.6.24c.2.04.28.28.12.4L4.92 3.48c-.04.04-.08.12-.08.2l.28 1.6c.04.2-.16.36-.36.24l-1.44-.76c-.04.04-.12.04-.16.08l-1.44.76c-.16.08-.36-.04-.36-.24l.28-1.6c0-.08 0-.16-.08-.2L.4 2.4C.24 2.24.32 2 .52 2l1.6-.24c.08 0 .16-.04.16-.12L3 .2c.12-.2.36-.2.48-.04z" transform="translate(4 5)"/>
                            </g>
                        </g>
                    </g>
                </g>
            </g>
        </g>
    </g>
</svg>
