<?xml version="1.0" encoding="UTF-8"?>
<svg width="32px" height="32px" viewBox="0 0 32 32" version="1.1" xmlns="http://www.w3.org/2000/svg" xmlns:xlink="http://www.w3.org/1999/xlink">
    <title>EABF53A8-19C1-4717-908B-DE3ACCDDEB04</title>
    <g id="Page-1" stroke="none" stroke-width="1" fill="none" fill-rule="evenodd">
        <g id="01_Home_Web" transform="translate(-165.000000, -5098.000000)" fill="#FFFFFF" fill-rule="nonzero">
            <g id="Footer-Web" transform="translate(0.000000, 4791.000000)">
                <g id="Group-15" transform="translate(165.000000, 307.000000)">
                    <path d="M16,0 C7.16341688,0 0,7.16341688 0,16 C0,24.8365831 7.16341688,32 16,32 C24.8365831,32 32,24.8365831 32,16 C32,7.16341688 24.8365831,0 16,0 Z M22.1040614,8.14813299 L19.8910691,8.14911509 C18.1557033,8.14911509 17.8201535,8.97374936 17.8201535,10.1836931 L17.8201535,12.8517238 L21.9583836,12.8517238 L21.9564194,17.0305473 L17.8204808,17.0305473 L17.8204808,27.7543939 L13.5041637,27.7543939 L13.5041637,17.0305473 L9.89593862,17.0305473 L9.89593862,12.8517238 L13.5041637,12.8517238 L13.5041637,9.76990281 C13.5041637,6.19343223 15.6893299,4.24560614 18.879509,4.24560614 L22.1043887,4.25051662 L22.1043887,8.14813299 L22.1040614,8.14813299 Z" id="Shape"></path>
                </g>
            </g>
        </g>
    </g>
</svg>