<svg xmlns="http://www.w3.org/2000/svg" width="24.201" height="24" viewBox="0 0 24.201 24">
  <defs>
    <style>
      .cls-1 {
        fill: #295396;
      }

      .cls-2 {
        fill: #fcfcfd;
      }
    </style>
  </defs>
  <g id="pngfuel.com" transform="translate(-0.1 -0.6)">
    <path id="Path_1" data-name="Path 1" class="cls-1" d="M12.7,24.6H11.6a12.606,12.606,0,0,1-7.462-3.025A11.825,11.825,0,0,1,.2,14.213c0-.3-.1-.706-.1-1.008V12.1a12.178,12.178,0,0,1,2.924-7.26A12.322,12.322,0,0,1,10.386.7,5.327,5.327,0,0,1,11.7.6h1.109a12.3,12.3,0,0,1,6.958,2.622A11.5,11.5,0,0,1,24.2,11.39a1.716,1.716,0,0,0,.1.706V13.2a12.606,12.606,0,0,1-3.025,7.462A11.825,11.825,0,0,1,13.915,24.6,2.376,2.376,0,0,0,12.7,24.6Zm.5-8.47V12.8a.267.267,0,0,1,.3-.3h1.412c.2,0,.3-.1.3-.2.1-.706.1-1.311.2-2.017a.267.267,0,0,0-.3-.3H13.512a.267.267,0,0,1-.3-.3V8.566c.1-.5.3-.706.908-.706h1.008a.267.267,0,0,0,.3-.3V5.743c0-.3-.1-.3-.3-.3H12.806a2.632,2.632,0,0,0-2.622,2.42,6.1,6.1,0,0,0,0,1.916c0,.3,0,.3-.3.3H8.974a.267.267,0,0,0-.3.3V12.4c0,.2.1.2.2.2H9.68c.4,0,.4,0,.4.4v6.454c0,.4,0,.4.4.4h2.319c.4,0,.4,0,.4-.4Q13.209,17.793,13.209,16.129Z" transform="translate(0 0)"/>
    <path id="Path_2" data-name="Path 2" class="cls-2" d="M13.138,16.089v3.227c0,.4,0,.4-.4.4H10.415c-.4,0-.4,0-.4-.4V12.862c0-.4,0-.4-.4-.4H8.8c-.2,0-.2-.1-.2-.2V10.24c0-.2.1-.2.3-.2H9.81c.3,0,.3,0,.3-.3V7.82A2.564,2.564,0,0,1,12.734,5.4h2.319a.267.267,0,0,1,.3.3V7.518a.267.267,0,0,1-.3.3H14.045c-.605,0-.807.2-.908.807V9.736a.267.267,0,0,0,.3.3h1.613a.267.267,0,0,1,.3.3c-.1.706-.1,1.311-.2,2.017,0,.2-.1.2-.3.2H13.44a.267.267,0,0,0-.3.3Z" transform="translate(0.071 0.04)"/>
  </g>
</svg>
