<?xml version="1.0" encoding="UTF-8"?>
<svg width="111px" height="38px" viewBox="0 0 111 38" version="1.1" xmlns="http://www.w3.org/2000/svg" xmlns:xlink="http://www.w3.org/1999/xlink">
    <title>C8003EFD-A123-4C3B-9A18-B9620EEDAFE7</title>
    <g id="Home" stroke="none" stroke-width="1" fill="none" fill-rule="evenodd">
        <g id="01_Home_Web" transform="translate(-165.000000, -4831.000000)">
            <g id="Footer-Web" transform="translate(0.000000, 4791.000000)">
                <g id="Group-16" transform="translate(165.000000, 40.000000)">
                    <path d="M51.5826829,26.6602439 C51.6033524,26.8945858 51.6033524,27.1302923 51.5826829,27.3646341 C51.5826829,27.4109756 51.5826829,27.5592683 51.5826829,27.8280488 C51.5826829,28.0968293 51.5826829,28.2358537 51.5826829,28.2914634 C51.5748279,28.4407338 51.495454,28.5770499 51.3695122,28.657561 C51.2799845,28.727429 51.1751663,28.7750736 51.0636585,28.7965854 C50.9201724,28.806538 50.7761691,28.806538 50.6326829,28.7965854 C49.7336585,28.7718699 48.3913008,28.7610569 46.6056098,28.7641463 C45.2941463,28.7641463 44.6314634,28.7641463 44.6082927,28.7641463 C44.4305236,28.7819955 44.2520542,28.7377875 44.1031707,28.6390244 C44.0104878,28.5602439 43.9687805,28.374878 43.9687805,28.087561 L43.9687805,8.03560976 C43.9687805,7.72512195 44.0336585,7.5304878 44.1819512,7.44707317 C44.4172472,7.36026138 44.6693151,7.32855473 44.9187805,7.35439024 L50.9431707,7.35439024 C51.332439,7.37756098 51.5317073,7.52121951 51.554878,7.78536585 C51.5821244,8.06097443 51.5914123,8.33806359 51.5826829,8.61487805 C51.592967,8.90095012 51.583677,9.18739061 51.554878,9.47219512 C51.5417212,9.55787982 51.504794,9.63815619 51.4482927,9.70390244 C51.3888908,9.76171425 51.3125858,9.79905503 51.2304878,9.8104878 C51.1511377,9.83180043 51.0706956,9.84881702 50.9895122,9.86146341 C50.8924219,9.87085984 50.7946512,9.87085984 50.697561,9.86146341 L50.4473171,9.86146341 L47.467561,9.86146341 C47.2093134,9.83498043 46.9483961,9.86502545 46.7029268,9.9495122 C46.5342992,10.1072393 46.4530358,10.3371976 46.485122,10.5658537 L46.485122,16.3770732 C46.4984665,16.5528749 46.6209134,16.7012953 46.7909756,16.7478049 C47.0420386,16.8118678 47.3019977,16.833792 47.5602439,16.8126829 L49.525122,16.8126829 C49.7236386,16.8059328 49.8953974,16.9497309 49.9236585,17.1463415 C49.9831333,17.4610319 49.9940731,17.7829737 49.9560976,18.1009756 C49.9674751,18.3994976 49.9566322,18.6984524 49.9236585,18.9953659 C49.8865854,19.157561 49.7521951,19.2595122 49.525122,19.2965854 L47.5602439,19.2965854 C47.2820542,19.2773809 47.0025528,19.2992413 46.7307317,19.3614634 C46.550675,19.4984351 46.4571098,19.7208731 46.485122,19.9453659 L46.485122,25.9234146 C46.5693809,26.151681 46.7997709,26.2918349 47.0412195,26.2617073 L50.9107317,26.2617073 C51.3046341,26.2802439 51.5270732,26.4146341 51.5826829,26.6602439 Z" id="Path" fill="#FFFFFF" fill-rule="nonzero"></path>
                    <path d="M62.162439,28.0736585 C62.1254485,27.9583036 62.0960363,27.8406545 62.0743902,27.7214634 C62.0743902,27.6334146 62.0280488,27.5036585 62.0280488,27.4619512 C61.94,27.0634146 61.8982927,26.757561 61.8519512,26.5814634 C61.5878049,25.1912195 61.3282927,23.9492683 61.1058537,22.8092683 C61.0178049,22.3458537 60.9297561,21.7109756 60.7582927,20.9185366 C60.7158695,20.766838 60.6864139,20.6118087 60.6702439,20.455122 C60.6249219,20.2820615 60.5954507,20.1052341 60.5821951,19.9268293 C60.4927229,19.6861772 60.4927229,19.4213837 60.5821951,19.1807317 C60.7380374,18.9615278 60.9132976,18.7567991 61.1058537,18.5690244 C61.2912416,18.3887542 61.4475688,18.1808391 61.5692683,17.9526829 C61.6180605,17.6634537 61.6336087,17.3695924 61.6156098,17.0768293 L61.6156098,9.33317073 C61.6260235,9.0915937 61.5816648,8.85078978 61.4858537,8.62878049 C61.2922062,8.38539458 61.0865019,8.15185055 60.8695122,7.92902439 C60.7274352,7.78241205 60.5723255,7.6490177 60.4060976,7.5304878 C60.2792739,7.47467203 60.1473623,7.43121881 60.0121951,7.40073171 C59.8778049,7.40073171 59.7480488,7.35439024 59.6136585,7.35439024 C59.4670582,7.35083701 59.3206204,7.3664155 59.1780488,7.40073171 L54.9609756,7.40073171 C54.497561,7.40073171 54.214878,7.44243902 54.1268293,7.57682927 C54.0768279,7.83627115 54.0627936,8.10136304 54.085122,8.36463415 L54.085122,27.7214634 C54.0637856,28.0001584 54.0777993,28.2804331 54.1268293,28.5556098 C54.214878,28.69 54.3909756,28.7780488 54.7431707,28.7780488 L55.67,28.7780488 C56.1056098,28.7780488 56.3697561,28.7317073 56.4160976,28.6436585 C56.462439,28.5556098 56.5458537,28.2960976 56.5458537,27.8095122 L56.5458537,20.1307317 C56.5458537,19.8665854 56.5041463,19.6904878 56.5458537,19.6673171 C56.5339791,19.5900086 56.5504365,19.5110129 56.5921951,19.444878 C56.8106005,19.2928147 57.0904894,19.2597843 57.3382927,19.3568293 C57.5329186,19.3947212 57.6960928,19.5266492 57.7739024,19.7090244 C57.7739024,19.7553659 57.8619512,20.0612195 57.95,20.584878 C57.9885267,20.7374639 58.0179284,20.8922096 58.0380488,21.0482927 C58.0812879,21.1903394 58.1107731,21.3362134 58.1260976,21.4839024 C58.3021951,22.3180488 58.4319512,22.9760976 58.52,23.3746341 C58.6080488,23.7731707 58.6960976,24.4265854 58.8721951,25.302439 C59.0482927,26.1782927 59.1826829,26.7992683 59.2707317,27.1931707 C59.3541463,27.804878 59.4004878,28.12 59.4004878,28.1570732 C59.4149726,28.3432222 59.5118443,28.5131726 59.6646341,28.6204878 C59.8477585,28.7324604 60.0631461,28.7797804 60.2763415,28.754878 L61.3746341,28.754878 C61.4718349,28.7988925 61.5832871,28.7988925 61.6804878,28.754878 C61.7710473,28.7621997 61.8619751,28.7462474 61.9446341,28.7085366 C62.0140058,28.7089061 62.0794043,28.6762069 62.1207317,28.6204878 C62.1697802,28.5419686 62.1999217,28.4531306 62.2087805,28.3609756 C62.1758317,28.2688588 62.1601227,28.1714633 62.162439,28.0736585 L62.162439,28.0736585 Z M59.1780488,16.6180488 C59.1317073,16.7478049 59.0019512,16.8358537 58.7378049,16.8358537 L57.727561,16.8358537 C57.4057139,16.8582296 57.08237,16.8442388 56.7636585,16.7941463 C56.7173171,16.7941463 56.6756098,16.7478049 56.6292683,16.7478049 C56.5829268,16.7478049 56.587561,16.6597561 56.587561,16.6180488 C56.587561,16.5763415 56.587561,16.53 56.5412195,16.53 L56.5412195,11.0895122 C56.5171385,10.7798562 56.5327117,10.4683924 56.587561,10.1626829 C56.6756098,9.98658537 56.8934146,9.89853659 57.1992683,9.89853659 L58.9973171,9.89853659 C59.124087,10.0059405 59.1899311,10.1688181 59.1734146,10.3341463 L59.1780488,16.6180488 Z" id="Shape" fill="#FFFFFF" fill-rule="nonzero"></path>
                    <path d="M72.2417073,27.2117073 L72.2417073,28.2590244 C72.2475928,28.4536355 72.1553177,28.6381857 71.9960976,28.7502439 C71.7403608,28.8389659 71.4682957,28.8706014 71.1990244,28.8429268 L65.6056098,28.8429268 C65.3561519,28.8681073 65.1042313,28.8364192 64.8687805,28.7502439 C64.725122,28.6714634 64.6556098,28.4721951 64.6556098,28.1663415 L64.6556098,27.0912195 C64.6556098,26.7019512 64.7343902,26.4656098 64.9012195,26.3868293 C65.0021628,26.3437574 65.1112794,26.3231992 65.2209756,26.3265854 L65.6519512,26.3265854 L65.9763415,26.3265854 L71.7180488,26.3265854 C71.8942736,26.3033527 72.0698748,26.3735933 72.1814634,26.5119512 C72.2356772,26.7409988 72.2559748,26.976764 72.2417073,27.2117073 L72.2417073,27.2117073 Z" id="Path" fill="#FFFFFF" fill-rule="nonzero"></path>
                    <path d="M72.1258537,24.1253659 C72.0795122,23.9909756 72.0795122,23.7314634 71.9914634,23.4209756 C71.9655712,23.2475855 71.9516358,23.0726197 71.9497561,22.8973171 C71.9034146,22.7212195 71.82,21.8870732 71.597561,20.4829268 C71.5095122,19.9546341 71.3797561,19.1204878 71.2453659,18.0221951 C71.1109756,16.9239024 70.9395122,16.0480488 70.8514634,15.4780488 C70.7634146,14.9080488 70.6753659,14.1156098 70.4992683,13.0173171 C70.3231707,11.9190244 70.2397561,11.0895122 70.1517073,10.514878 C69.887561,8.84658537 69.7995122,8.01243902 69.7995122,8.01243902 C69.7114634,7.66487805 69.6234146,7.48878049 69.4890244,7.44243902 L67.385122,7.44243902 C67.3387805,7.44243902 67.2970732,7.48878049 67.2507317,7.48878049 C67.2043902,7.48878049 67.2090244,7.57682927 67.1626829,7.61853659 C67.1163415,7.6602439 67.1209756,7.75292683 67.1209756,7.79463415 L67.1209756,8.1004878 C67.0329268,8.49902439 66.944878,9.33317073 66.7270732,10.5612195 C66.7270732,10.7790244 66.5046341,12.414878 66.0226829,15.4317073 C65.7168293,17.7487805 65.4526829,19.3846341 65.3229268,20.3485366 C65.1468293,21.6229268 65.012439,22.4570732 64.9707317,22.8973171 C64.9707317,22.8973171 64.8826829,23.2912195 64.7946341,24.0373171 C64.7065854,24.5609756 64.7529268,24.825122 64.8363415,24.9131707 C64.878603,24.9677649 64.9434068,25.0001668 65.012439,25.0012195 C65.0815909,25.0348862 65.158035,25.050812 65.234878,25.047561 L66.5046341,25.047561 C66.6390244,25.047561 66.7270732,25.0012195 66.8568293,25.0012195 C67.1024663,24.874498 67.2550853,24.6195345 67.2507317,24.3431707 L67.2507317,24.255122 C67.2507317,24.1253659 67.2507317,24.0373171 67.2970732,23.9909756 C67.3434146,23.9446341 67.3387805,23.9029268 67.385122,23.8612195 C67.4620635,23.8054871 67.5542756,23.7747498 67.6492683,23.7731707 L68.8773171,23.7731707 C69.2295122,23.7731707 69.4056098,23.7731707 69.4473171,23.814878 C69.4890244,23.8565854 69.5770732,23.9492683 69.6234146,24.1253659 C69.7114634,24.5609756 69.7995122,24.825122 69.9292683,24.9131707 C69.9944305,24.9614829 70.0711327,24.9918441 70.1517073,25.0012195 C70.239484,25.0084119 70.3263786,25.0239287 70.4112195,25.047561 L71.6856098,25.047561 C71.82,25.0012195 71.9034146,25.0012195 72.0378049,24.9595122 C72.1721951,24.9178049 72.167561,24.6073171 72.1258537,24.1253659 Z M69.2295122,21.0529268 C69.2295122,21.1826829 69.1414634,21.2707317 68.9653659,21.2707317 L67.8021951,21.2707317 C67.6905424,21.1438705 67.6568017,20.9662878 67.7141463,20.8073171 C67.8021951,20.0195122 67.8485366,19.4495122 67.8902439,19.1390244 C68.1080488,17.605122 68.242439,16.6829268 68.2841463,16.2426829 C68.3258537,15.802439 68.3721951,15.5429268 68.3721951,15.4965854 L68.3721951,15.4502439 C68.4185366,15.232439 68.5065854,15.1860976 68.5482927,15.3621951 C68.5482927,15.4085366 68.5946341,15.6263415 68.6363415,16.1546341 C68.6826829,16.4187805 68.7243902,16.6180488 68.7707317,16.8543902 C68.812439,17.2065854 68.8541463,17.7812195 68.9421951,18.5226829 C69.0222957,18.9146562 69.0810811,19.3106848 69.1182927,19.7090244 C69.1182927,19.885122 69.1646341,20.1029268 69.2063415,20.455122 C69.2480488,20.8073171 69.2712195,21.0112195 69.2295122,21.0529268 Z" id="Shape" fill="#FFFFFF" fill-rule="nonzero"></path>
                    <path d="M100.296829,7.59536585 C100.335118,7.86233757 100.324124,8.13406769 100.26439,8.39707317 C100.24122,8.6195122 100.213415,8.95780488 100.176341,9.40731707 C100.158882,9.66541338 100.126388,9.92227207 100.079024,10.1765854 C100.000244,11.0385366 99.875122,12.2387805 99.7129268,13.7726829 C99.6882114,13.9765854 99.4426016,16.394065 98.9760976,21.025122 C98.8509756,22.3365854 98.7304878,23.5414634 98.6053659,24.6490244 C98.42,26.5366667 98.3180488,27.6318699 98.2995122,27.9346341 C98.2995122,28.3980488 98.1326829,28.6714634 97.8685366,28.7363415 C97.6244527,28.7698537 97.3777919,28.780713 97.1317073,28.7687805 L95.412439,28.7687805 C95.166355,28.7809272 94.9196743,28.7700671 94.6756098,28.7363415 C94.3882927,28.6714634 94.2121951,28.3980488 94.2121951,27.9068293 C94.2121951,27.8666667 94.0994309,26.7405691 93.8739024,24.5285366 C93.713252,22.7613821 93.5896748,21.5626829 93.5031707,20.932439 C93.5031707,20.932439 93.5031707,20.835122 93.5031707,20.7007317 C93.497626,20.5926727 93.497626,20.4844005 93.5031707,20.3763415 C93.4614634,20.2512195 93.4197561,20.1909756 93.3780488,20.1909756 C93.3363415,20.1909756 93.3456098,20.2234146 93.3363415,20.2882927 C93.3292612,20.3529776 93.3292612,20.418242 93.3363415,20.4829268 C93.3334924,20.5915114 93.3242078,20.6998315 93.3085366,20.8073171 C93.2853659,21.1131707 93.257561,21.4329268 93.2112195,21.7619512 C93.1741463,22.2253659 93.1092683,22.8741463 93.0304878,23.7407317 C92.9517073,24.6073171 92.8960976,25.1309756 92.8729268,25.3534146 C92.8497561,25.5758537 92.8265854,25.7936585 92.784878,26.187561 C92.7431707,26.5814634 92.7107317,26.8826829 92.687561,27.1143902 C92.6504878,27.4573171 92.6226829,27.74 92.5995122,27.9392683 C92.6005427,28.177476 92.5364444,28.4114346 92.4141463,28.6158537 C92.2200031,28.7315704 91.9956369,28.7864513 91.77,28.7734146 L90.8339024,28.7734146 C89.6846341,28.7734146 89.1007317,28.7734146 89.0821951,28.7409756 C88.9900168,28.7425612 88.8990037,28.7202071 88.8180488,28.6760976 C88.7568404,28.6443186 88.700631,28.6037229 88.6512195,28.5556098 C88.6000541,28.4935103 88.5636145,28.4206311 88.5446341,28.342439 C88.5194134,28.2722657 88.5038242,28.1989966 88.4982927,28.1246341 C88.4982927,28.087561 88.4982927,27.9995122 88.4982927,27.865122 C88.4982927,27.7307317 88.4982927,27.6565854 88.4982927,27.6334146 C88.4982927,27.4897561 88.4565854,27.295122 88.4380488,27.0541463 C88.4195122,26.8131707 88.3963415,26.5907317 88.3778049,26.3868293 C88.3592683,26.1829268 88.3314634,26.0068293 88.317561,25.8214634 C87.6996748,19.8186992 87.2069106,14.9945528 86.8392683,11.3490244 C86.8392683,11.145122 86.7882927,10.8346341 86.7465854,10.4221951 C86.704878,10.0097561 86.672439,9.71780488 86.6585366,9.53243902 C86.652628,9.35717307 86.6371578,9.18236023 86.6121951,9.00878049 C86.5797561,8.78170732 86.5565854,8.58243902 86.5334146,8.39707317 C86.511767,8.22336059 86.5009331,8.04847084 86.5009756,7.87341463 C86.4919746,7.72987433 86.554404,7.59114237 86.6678049,7.50268293 C86.7597868,7.43401965 86.8658137,7.38654494 86.9782927,7.36365854 C87.0709756,7.36365854 87.2254472,7.36365854 87.4417073,7.36365854 L88.2109756,7.36365854 C88.4422067,7.33208322 88.6760421,7.39937398 88.855122,7.54902439 C88.9572553,7.68164139 89.0111904,7.84508128 89.0080488,8.01243902 C89.0080488,8.11439024 89.0497561,8.26731707 89.0729268,8.47585366 C89.0960976,8.68439024 89.1007317,8.8002439 89.1007317,8.84195122 C89.2258537,9.99121951 89.2860976,10.5843902 89.2860976,10.6260976 C89.446748,12.1430081 89.5703252,13.3525203 89.6568293,14.2546341 C89.7155285,14.8910569 89.8282927,16.0217886 89.995122,17.6468293 C90.1573171,19.2780488 90.2870732,20.5292683 90.3936585,21.4097561 C90.3936585,21.5163415 90.3936585,21.6414634 90.3936585,21.7943902 C90.3936585,21.9473171 90.4168293,22.0956098 90.4307317,22.2253659 C90.4446341,22.355122 90.4307317,22.4895122 90.472439,22.61 C90.5141463,22.7304878 90.5234146,22.8880488 90.565122,22.8880488 C90.6068293,22.8880488 90.6392683,22.7814634 90.6578049,22.577561 C90.6578049,22.5003252 90.7504878,21.5271545 90.9358537,19.6580488 C91.0594309,18.5304065 91.3050407,16.1129268 91.6726829,12.4056098 C91.8580488,10.6631707 91.981626,9.48609756 92.0434146,8.87439024 C92.0393959,8.80339015 92.0393959,8.7322196 92.0434146,8.66121951 C92.0473127,8.58867021 92.0473127,8.51596394 92.0434146,8.44341463 C92.0373052,8.37248905 92.0373052,8.30116949 92.0434146,8.2302439 C92.0475896,8.1577023 92.0475896,8.08498063 92.0434146,8.01243902 C92.0434146,8.01243902 92.0434146,7.94292683 92.0434146,7.86414634 C92.0469688,7.79622533 92.0469688,7.72816492 92.0434146,7.6602439 C92.0458685,7.60620162 92.0617989,7.55363108 92.0897561,7.50731707 C92.1214213,7.4559081 92.1709133,7.41796417 92.2287805,7.40073171 C92.2519512,7.37756098 92.3307317,7.37756098 92.4790244,7.40073171 L94.5365854,7.40073171 C94.5820625,7.45230759 94.6139229,7.51443534 94.6292683,7.58146341 C94.6535337,7.75489618 94.6628363,7.93009475 94.6570732,8.10512195 C94.6570732,8.2904878 94.7080488,8.56853659 94.7497561,8.98097561 C94.7914634,9.39341463 94.8239024,9.68536585 94.842439,9.90780488 C94.8795122,10.2553659 94.9258537,10.64 94.9629268,11.0570732 C95,11.4741463 95.0463415,11.9097561 95.0880488,12.35 C95.1297561,12.7902439 95.1668293,13.174878 95.2131707,13.4992683 C95.6611382,17.8244715 95.906748,20.2419512 95.95,20.7517073 C95.95,20.835122 95.95,21.0760976 96.0102439,21.4746341 C96.0704878,21.8731707 96.0797561,22.1882927 96.1029268,22.4014634 C96.1176992,22.5649562 96.1683315,22.7231823 96.2512195,22.864878 C96.2512195,22.864878 96.2882927,22.7860976 96.2882927,22.6192683 L96.2882927,22.5080488 C96.2838415,22.478868 96.2838415,22.4491808 96.2882927,22.42 C96.2931217,22.3846356 96.2931217,22.348779 96.2882927,22.3134146 L96.2882927,22.2207317 C96.3114634,22.0121951 96.3392683,21.7063415 96.3809756,21.2939024 C96.4597561,20.677561 96.5246341,20.0843902 96.5663415,19.5097561 C96.9988618,15.3297561 97.2444715,12.9230894 97.3031707,12.2897561 C97.5070732,10.324878 97.6321951,9.10609756 97.6692683,8.63341463 C97.6692683,8.59170732 97.6692683,8.50365854 97.6692683,8.37390244 C97.6692683,8.24414634 97.6692683,8.13292683 97.6970732,8.0495122 C97.7106413,7.95553697 97.7307718,7.86262692 97.7573171,7.77146341 C97.7850697,7.67936885 97.8343083,7.5951868 97.9009756,7.52585366 C97.9688552,7.46189005 98.054456,7.41989723 98.1465854,7.40536585 L98.9436585,7.40536585 L99.3468293,7.40536585 L99.7453659,7.40536585 C100.079024,7.37292683 100.24122,7.45170732 100.296829,7.59536585 Z" id="Path" fill="#FFFFFF" fill-rule="nonzero"></path>
                    <path d="M109.532683,26.7112195 C109.57915,27.0179206 109.600846,27.3278651 109.597561,27.6380488 C109.618155,27.9380587 109.585203,28.2393398 109.500244,28.5278049 C109.388186,28.687025 109.203635,28.7793001 109.009024,28.7734146 L102.71122,28.7734146 C102.556221,28.7784461 102.40109,28.7691382 102.247805,28.7456098 C102.062439,28.6621951 101.97439,28.4026829 101.97439,27.9763415 L101.97439,27.1839024 C101.981551,27.1176727 101.981551,27.0508639 101.97439,26.9846341 C101.96963,26.9229372 101.96963,26.8609652 101.97439,26.7992683 C102.024688,26.632315 102.121061,26.4829364 102.252439,26.3682927 C102.473102,26.3110353 102.701717,26.2906791 102.929024,26.3080488 L108.582683,26.3080488 C108.828767,26.295902 109.075448,26.3067622 109.319512,26.3404878 C109.451194,26.4176092 109.532273,26.558617 109.532683,26.7112195 L109.532683,26.7112195 Z" id="Path" fill="#FFFFFF" fill-rule="nonzero"></path>
                    <path d="M101.97439,9.46756098 L101.97439,8.70292683 C101.964772,8.46499667 101.985011,8.22679907 102.034634,7.99390244 C102.121626,7.69901803 102.374012,7.48294656 102.67878,7.44243902 C102.892417,7.41592448 103.107708,7.40508251 103.322927,7.41 L108.638293,7.41 C108.865892,7.38974002 109.095276,7.41173573 109.314878,7.47487805 C109.44,7.51195122 109.523415,7.6695122 109.560488,7.93829268 C109.597561,8.20707317 109.597561,8.54073171 109.597561,8.82804878 L109.597561,9.22658537 C109.597561,9.27292683 109.597561,9.33317073 109.597561,9.41195122 C109.592314,9.47585158 109.57666,9.53846517 109.55122,9.59731707 C109.524708,9.64643519 109.49368,9.69297761 109.458537,9.73634146 C109.421409,9.78365664 109.373823,9.82172541 109.319512,9.84756098 L109.120244,9.90780488 L105.649268,9.90780488 C105.578282,9.91229923 105.507083,9.91229923 105.436098,9.90780488 L105.20439,9.90780488 L105.000488,9.90780488 C104.926162,9.91669476 104.853994,9.93865899 104.787317,9.97268293 C104.725063,10.0027361 104.66859,10.043522 104.620488,10.0931707 C104.568897,10.1423727 104.531995,10.204945 104.513902,10.2739024 C104.479095,10.5038657 104.466679,10.7366634 104.476829,10.9690244 L104.476829,13.6707317 C104.476829,13.6707317 104.476829,13.7958537 104.476829,13.9812195 C104.462507,14.113679 104.462507,14.2472966 104.476829,14.3797561 C104.489858,14.481267 104.519611,14.579919 104.564878,14.6717073 C104.613443,14.7800754 104.69439,14.8707356 104.796585,14.9312195 C104.9434,14.9942978 105.10038,15.0304032 105.26,15.0378049 C105.465864,15.0481393 105.672244,15.0388289 105.876341,15.01 C106.043592,14.9832853 106.212248,14.966265 106.381463,14.9590244 L107.243415,14.9590244 C107.449572,14.9506862 107.653339,15.0056711 107.827317,15.1165854 C107.925771,15.2511246 107.979284,15.4132877 107.980244,15.58 L107.980244,16.8219512 C107.980244,16.8497561 107.980244,16.9007317 107.980244,16.974878 C107.97637,17.0330721 107.960598,17.0898527 107.933902,17.1417073 L107.873659,17.2853659 C107.854831,17.3343879 107.816095,17.3731242 107.767073,17.3919512 L107.59561,17.4521951 C107.361918,17.4800807 107.126382,17.4893781 106.89122,17.48 C106.525122,17.48 106.214634,17.48 105.96439,17.4521951 L105.64,17.4521951 L105.241463,17.4521951 C105.137678,17.4552926 105.03479,17.4724405 104.93561,17.5031707 C104.820838,17.5202672 104.716657,17.5797995 104.643659,17.67 C104.523961,17.8150396 104.46723,18.0019202 104.486098,18.1890244 L104.486098,21.724878 C104.460169,21.9384457 104.504064,22.1546689 104.61122,22.3412195 C104.716158,22.4751844 104.876658,22.5537271 105.046829,22.5543902 L108.517805,22.5543902 C108.785,22.5380079 109.05318,22.5582773 109.314878,22.6146341 C109.473768,22.6699762 109.582359,22.8172185 109.588293,22.9853659 C109.624213,23.2711847 109.636612,23.5594696 109.625366,23.8473171 C109.635592,24.1027897 109.623186,24.3586662 109.588293,24.6119512 C109.582359,24.7800986 109.473768,24.9273409 109.314878,24.9826829 C109.083131,25.0420144 108.845065,25.0731341 108.605854,25.0753659 L108.346341,25.0753659 C108.253659,25.0753659 108.156341,25.0753659 108.05439,25.0753659 L107.80878,25.0753659 L103.383171,25.0753659 C103.085229,25.0934727 102.786196,25.0732256 102.493415,25.015122 C102.16439,24.89 102.002195,24.5053659 102.002195,23.8473171 L102.002195,9.46756098 L101.97439,9.46756098 Z" id="Path" fill="#FFFFFF" fill-rule="nonzero"></path>
                    <path d="M79.04,17.4985366 C78.9192862,17.4979317 78.7992253,17.4807801 78.6831707,17.447561 C78.1590972,17.237836 77.8674199,16.6761601 77.9973171,16.1268293 L79.1141463,12.6697561 C78.4648721,13.0994448 77.6576222,13.2167085 76.9129268,12.9895122 C76.777682,12.9534364 76.6742859,12.8442637 76.6456087,12.7072591 C76.6169314,12.5702546 76.6678628,12.4287787 76.7772855,12.3414901 C76.8867083,12.2542015 77.0359649,12.2359838 77.1631707,12.2943902 C77.6265854,12.4658537 78.7573171,12.4473171 79.5636585,11.1497561 C79.9482927,9.54634146 80.8519512,6.73804878 80.8890244,6.62219512 C80.9936052,6.35079318 81.2019872,6.13222842 81.4680948,6.01482798 C81.7342025,5.89742754 82.036114,5.89086283 82.3070732,5.99658537 C82.9002439,6.2004878 83.1597561,6.70560976 83.0763415,7.49341463 C83.0021951,8.20707317 82.2885366,10.1117073 81.6026829,10.7373171 C81.2342769,11.0676597 80.7927568,11.3058899 80.3143902,11.432439 L79.8509756,12.8458537 C80.4209756,13.0126829 81.5470732,13.1007317 82.682439,10.9921951 C82.7821233,10.8131912 83.006933,10.747192 83.187561,10.8439024 C83.3642607,10.9433711 83.4282631,11.1663471 83.3312195,11.3443902 C82.334878,13.1980488 81.2226829,13.6614634 80.2726829,13.6290244 C80.8609746,14.5721399 80.8483172,15.7709792 80.2402439,16.7014634 C80.01979,17.169916 79.5572877,17.4770604 79.04,17.4985366 L79.04,17.4985366 Z M78.7017073,16.3029268 C78.7017073,16.3029268 78.6646341,16.6690244 78.8963415,16.7385366 C78.9982927,16.7709756 79.2717073,16.8497561 79.6007317,16.3353659 C79.6378049,16.2704878 80.4580488,14.945122 79.4941463,13.8792683 L78.7017073,16.3029268 Z M81.5702439,6.91878049 C81.5702439,6.91878049 80.9029268,9.00878049 80.4719512,10.5936585 C80.7037777,10.4940878 80.9181276,10.3579678 81.1068293,10.1904878 C81.6304878,9.72707317 82.2839024,8.00780488 82.3395122,7.43317073 C82.395122,6.85853659 82.2792683,6.78439024 82.0660976,6.7102439 C81.97398,6.66148828 81.8648448,6.65664556 81.7687709,6.69705047 C81.6726971,6.73745537 81.5998267,6.81884248 81.5702439,6.91878049 L81.5702439,6.91878049 Z" id="Shape" fill="#FFFFFF" fill-rule="nonzero"></path>
                    <path d="M75.4346341,14.0136585 C74.8169453,14.0230503 74.227298,13.7562647 73.8265854,13.2860976 C73.3548484,12.6942227 73.1683157,11.924351 73.3168293,11.1821951 C73.5670732,9.68073171 74.8878049,8.45268293 76.254878,8.44341463 L76.254878,8.44341463 C76.870334,8.43360687 77.4581356,8.69862725 77.8582927,9.16634146 C78.3294465,9.75850168 78.5159134,10.5281013 78.3680488,11.2702439 C78.1131707,12.7717073 76.7970732,13.9997561 75.43,14.0136585 L75.4346341,14.0136585 Z M76.2780488,9.1802439 L76.2780488,9.1802439 C75.2539024,9.1802439 74.257561,10.1395122 74.0629268,11.3026829 C73.9526572,11.8306979 74.0778556,12.3805557 74.4058537,12.8087805 C74.6653165,13.1131634 75.048736,13.283572 75.4485366,13.2721951 L75.4485366,13.2721951 C76.4726829,13.2721951 77.4690244,12.3129268 77.6636585,11.1497561 L77.6636585,11.1497561 C77.7757116,10.6224955 77.6484404,10.0726839 77.3160976,9.64829268 C77.0589748,9.34291704 76.6771431,9.17075188 76.2780488,9.1802439 L76.2780488,9.1802439 Z" id="Shape" fill="#FFFFFF" fill-rule="nonzero"></path>
                    <line x1="43.9780488" y1="1.9602439" x2="109.592927" y2="1.9602439" id="Path" stroke="#FFFFFF" stroke-width="1.28" stroke-linecap="round"></line>
                    <path d="M96.3578049,37.1936585 L97.6970732,36.0119512 C98.262439,35.5068293 98.4663415,35.2195122 98.4663415,34.8534146 C98.4678888,34.6591911 98.3891694,34.4729481 98.2487918,34.3387121 C98.1084143,34.204476 97.9188382,34.1341615 97.724878,34.1443902 C97.3049027,34.1645189 96.9272533,34.4062851 96.7331707,34.7792683 L96.4273171,34.5568293 C96.6838188,34.0617799 97.1999129,33.7560796 97.7573171,33.7690244 C98.0501866,33.7472865 98.3390485,33.8473504 98.5557144,34.0455953 C98.7723802,34.2438401 98.8976495,34.5226978 98.9019512,34.8163415 L98.9019512,34.8163415 C98.9019512,35.3539024 98.6146341,35.687561 97.975122,36.2529268 L96.9973171,37.1380488 L98.957561,37.1380488 L98.957561,37.5180488 L96.3763415,37.5180488 L96.3578049,37.1936585 Z" id="Path" fill="#FFFFFF" fill-rule="nonzero"></path>
                    <path d="M99.592439,35.6782927 L99.592439,35.6782927 C99.592439,34.644878 100.20878,33.7690244 101.15878,33.7690244 C102.10878,33.7690244 102.71122,34.6356098 102.71122,35.6690244 L102.71122,35.6690244 C102.71122,36.702439 102.099512,37.5782927 101.149512,37.5782927 C100.199512,37.5782927 99.592439,36.7163415 99.592439,35.6782927 Z M102.280244,35.6782927 L102.280244,35.6782927 C102.280244,34.8719512 101.816829,34.1490244 101.149512,34.1490244 C100.482195,34.1490244 100.023415,34.8534146 100.023415,35.6690244 L100.023415,35.6690244 C100.023415,36.4753659 100.486829,37.1982927 101.15878,37.1982927 C101.830732,37.1982927 102.280244,36.4892683 102.280244,35.6782927 Z" id="Shape" fill="#FFFFFF" fill-rule="nonzero"></path>
                    <path d="M103.239512,37.1936585 L104.57878,36.0119512 C105.144146,35.5068293 105.352683,35.2195122 105.352683,34.8534146 C105.354309,34.6583394 105.274961,34.4713256 105.133549,34.3369399 C104.992136,34.2025541 104.801325,34.1328326 104.606585,34.1443902 C104.186907,34.1654484 103.80968,34.4069439 103.614878,34.7792683 L103.309024,34.5568293 C103.566358,34.0625663 104.08191,33.7571866 104.639024,33.7690244 C104.932226,33.7458917 105.221878,33.8454765 105.438866,34.0440164 C105.655855,34.2425564 105.780717,34.5222438 105.783659,34.8163415 L105.783659,34.8163415 C105.783659,35.3539024 105.500976,35.687561 104.856829,36.2529268 L103.869756,37.1287805 L105.802195,37.1287805 L105.802195,37.5087805 L103.220976,37.5087805 L103.239512,37.1936585 Z" id="Path" fill="#FFFFFF" fill-rule="nonzero"></path>
                    <path d="M106.47878,35.6782927 L106.47878,35.6782927 C106.47878,34.644878 107.095122,33.7690244 108.045122,33.7690244 C108.995122,33.7690244 109.597561,34.6356098 109.597561,35.6690244 L109.597561,35.6690244 C109.597561,36.702439 108.98122,37.5782927 108.03122,37.5782927 C107.08122,37.5782927 106.47878,36.7163415 106.47878,35.6782927 Z M109.161951,35.6782927 L109.161951,35.6782927 C109.161951,34.8719512 108.698537,34.1490244 108.03122,34.1490244 C107.363902,34.1490244 106.909756,34.8534146 106.909756,35.6690244 L106.909756,35.6690244 C106.909756,36.4753659 107.373171,37.1982927 108.045122,37.1982927 C108.717073,37.1982927 109.161951,36.4892683 109.161951,35.6782927 Z" id="Shape" fill="#FFFFFF" fill-rule="nonzero"></path>
                    <path d="M21.2985366,14.2082927 L21.2985366,14.2082927 L21.1178049,14.0692683 L21.0714634,14.0368293 L20.8768293,13.9070732 L20.7980488,13.8560976 L20.6821951,13.7865854 L20.5709756,13.7263415 L20.487561,13.68 L20.2465854,13.5641463 L20.2002439,13.5641463 C20.1492683,13.5363415 20.0936585,13.5178049 20.0426829,13.4946341 L20.0426829,13.4946341 L19.8665854,13.4297561 L19.8665854,22.8 L20.0426829,22.735122 L20.0426829,22.735122 L20.204878,22.6702439 L20.2512195,22.6702439 L20.4968293,22.5543902 L20.5756098,22.5080488 L20.6868293,22.4478049 L20.8026829,22.3782927 L20.8814634,22.3273171 C20.9463415,22.2902439 21.0112195,22.2439024 21.0760976,22.2021951 L21.122439,22.165122 L21.3031707,22.0260976 L21.3031707,22.0260976 C22.0286439,21.4460141 22.5788993,20.6759774 22.8926829,19.8017073 L29.6353659,19.8017073 C29.7113124,19.2503867 29.7500179,18.6945745 29.7512574,18.1380488 C29.7658459,12.3764417 25.5443209,7.47963068 19.8434146,6.64536585 L19.8434146,9.98658537 C23.0884437,10.6534506 25.6249492,13.1881339 26.2941463,16.4326829 L22.8880488,16.4326829 C22.5742652,15.5584129 22.0240098,14.7883762 21.2985366,14.2082927 L21.2985366,14.2082927 Z" id="Path" fill="#FFFFFF" fill-rule="nonzero"></path>
                    <path d="M16.5160976,22.8 L16.5160976,13.3973171 C15.0993797,13.9012407 13.9846554,15.015965 13.4807317,16.4326829 L6.72878049,16.4326829 C5.81536351,22.7564678 10.1941444,28.6259416 16.5160976,29.5519512 L16.5160976,26.2107317 C13.2710685,25.5438665 10.734563,23.0091831 10.0653659,19.7646341 L13.4807317,19.7646341 C13.9846554,21.181352 15.0993797,22.2960763 16.5160976,22.8 Z" id="Path" fill="#FFFFFF" fill-rule="nonzero"></path>
                    <path d="M-2.34479103e-13,18.1009756 C0.00150109707,27.494885 7.16140509,35.3398415 16.5160976,36.1973171 L16.5160976,32.8931707 C9.62459144,32.1230617 4.17781287,26.6961704 3.3825008,19.8075274 C2.58718874,12.9188843 6.654059,6.39361712 13.1887805,4.07341463 L13.1887805,7.65560976 C10.8052277,8.79947875 8.88289338,10.7218131 7.73902439,13.1053659 L11.5760976,13.1053659 C12.7880398,11.4988982 14.5445873,10.3899334 16.5160976,9.98658537 L16.5160976,2.48689958e-14 C7.15963569,0.857637821 -0.00089426259,8.70528934 -2.34479103e-13,18.1009756 L-2.34479103e-13,18.1009756 Z" id="Path" fill="#A67C52" fill-rule="nonzero"></path>
                    <path d="M19.8434146,2.84217094e-14 L19.8434146,3.30414634 C26.7372033,4.07458317 32.1856846,9.50342639 32.9810086,16.3943882 C33.7763326,23.28535 29.707771,29.8126078 23.1707317,32.1331707 L23.1707317,28.5417073 C25.5542845,27.3978383 27.4766188,25.475504 28.6204878,23.0919512 L24.7880488,23.0919512 C23.5735,24.6977717 21.8158043,25.8064213 19.8434146,26.2107317 L19.8434146,36.1973171 C29.196461,35.3366604 36.3531186,27.4912198 36.3531186,18.0986585 C36.3531186,8.70609731 29.196461,0.860656703 19.8434146,2.84217094e-14 Z" id="Path" fill="#A67C52" fill-rule="nonzero"></path>
                    <line x1="93.0073171" y1="34.2370732" x2="43.9780488" y2="34.2370732" id="Path" stroke="#FFFFFF" stroke-width="1.28" stroke-linecap="round"></line>
                </g>
            </g>
        </g>
    </g>
</svg>