<svg xmlns="http://www.w3.org/2000/svg" width="21.519" height="22.138" viewBox="0 0 21.519 22.138">
  <defs>
    <style>
      .cls-1 {
        fill: #e94335;
      }

      .cls-2 {
        fill: #34a753;
      }

      .cls-3 {
        fill: #4285f3;
      }

      .cls-4 {
        fill: #fabb05;
      }
    </style>
  </defs>
  <g id="google-logo-png-google-logo-icon-png-transparent-background-1000" transform="translate(-1.281 -1)">
    <path id="Path_3" data-name="Path 3" class="cls-1" d="M2.4,7.2c.1-.3.3-.5.4-.8a10.8,10.8,0,0,1,6.6-5A13.167,13.167,0,0,1,12.8,1a10.685,10.685,0,0,1,6.6,2.6c.1.1.1.1,0,.2l-3,3c-.1.1-.1.1-.2,0a6.09,6.09,0,0,0-3.1-1.3A6.434,6.434,0,0,0,6.2,9.8a.1.1,0,0,1-.1.1C4.9,9.1,3.6,8.1,2.4,7.2Z"/>
    <path id="Path_4" data-name="Path 4" class="cls-2" d="M6.1,14.1a9.409,9.409,0,0,0,1.2,2.2,6.4,6.4,0,0,0,3.9,2.2,7.288,7.288,0,0,0,3.6-.3,5.359,5.359,0,0,0,1.1-.5h0c.7.5,1.3,1,2,1.6a17.1,17.1,0,0,1,1.4,1.1,10.591,10.591,0,0,1-1.2,1A9.367,9.367,0,0,1,13.8,23a11.106,11.106,0,0,1-5.4-.5,10.8,10.8,0,0,1-6.1-5.4V17l.1-.1C3.7,15.9,4.9,15,6.1,14.1Z"/>
    <path id="Path_5" data-name="Path 5" class="cls-3" d="M19.4,20.3A17.1,17.1,0,0,1,18,19.2c-.7-.5-1.3-1-2-1.6h0a2.7,2.7,0,0,0,.8-.7,5.613,5.613,0,0,0,1.4-2.5c0-.1,0-.1-.1-.1H12.5c-.1,0-.2,0-.2-.2v-4c0-.1,0-.1.1-.1h10c.1,0,.1,0,.2.1a7.487,7.487,0,0,1,.2,2.1,11.041,11.041,0,0,1-1,4.7,10.037,10.037,0,0,1-2.4,3.4Z"/>
    <path id="Path_6" data-name="Path 6" class="cls-4" d="M6.1,14.1,2.5,16.8l-.1.1a5.9,5.9,0,0,1-.4-.8,9.764,9.764,0,0,1-.7-3.3,11.479,11.479,0,0,1,1-5.5.1.1,0,0,1,.1-.1c1.2.9,2.5,1.9,3.7,2.8l-.3,1.2a7.373,7.373,0,0,0,.3,2.9Z"/>
  </g>
</svg>
