<svg width="57" height="54" viewBox="0 0 57 54" xmlns="http://www.w3.org/2000/svg">
    <g fill="#000" fill-rule="nonzero">
        <path d="M17.108 18a10.236 10.236 0 0 1-3.717-.7c-.305-.117-.465-.484-.357-.818.107-.333.442-.508.747-.39.215.082.428.156.633.22 4.367 1.34 9.011-.714 11.294-4.994a.574.574 0 0 1 .563-.315.597.597 0 0 1 .497.43c.44 1.394 1.475 2.464 2.77 2.861 1.22.374 2.506.119 3.53-.7a.554.554 0 0 1 .82.14.68.68 0 0 1-.129.895c-1.316 1.053-2.97 1.38-4.537.9-1.304-.4-2.404-1.33-3.09-2.575-2.11 3.2-5.49 5.046-9.025 5.046zM36.5 23h-1.875a.613.613 0 0 1-.625-.6v-4.8c0-.331.28-.6.625-.6H36.5c1.379 0 2.5 1.077 2.5 2.4v1.2c0 1.323-1.121 2.4-2.5 2.4zm-1.25-1.2h1.25c.69 0 1.25-.538 1.25-1.2v-1.2c0-.662-.56-1.2-1.25-1.2h-1.25v3.6z"/>
        <path d="M12.375 22H10.5C9.121 22 8 20.923 8 19.6v-1.2c0-1.323 1.121-2.4 2.5-2.4h1.875c.345 0 .625.269.625.6v4.8c0 .331-.28.6-.625.6zM10.5 17.2c-.69 0-1.25.538-1.25 1.2v1.2c0 .662.56 1.2 1.25 1.2h1.25v-3.6H10.5zM23.014 44a.531.531 0 0 1-.454-.279l-2.02-3.471h-3.994c-.302 0-.546-.28-.546-.625s.244-.625.546-.625h4.286c.183 0 .353.104.454.279l1.728 2.97 1.729-2.97a.532.532 0 0 1 .454-.279h4.257c.302 0 .546.28.546.625s-.244.625-.546.625h-3.966l-2.02 3.471a.531.531 0 0 1-.454.279zM34 54c-.552 0-1-.247-1-.551V43.55c0-.304.448-.551 1-.551s1 .247 1 .551v9.898c0 .304-.448.551-1 .551zM11 54c-.552 0-1-.247-1-.551V43.55c0-.304.448-.551 1-.551s1 .247 1 .551v9.898c0 .304-.448.551-1 .551zM22.5 29c-.84 0-1.681-.32-2.32-.958a.612.612 0 0 1 .865-.863 2.065 2.065 0 0 0 2.911 0 .613.613 0 0 1 .865 0 .61.61 0 0 1 0 .863c-.64.639-1.48.958-2.321.958zM28.352 23a.623.623 0 0 1-.457-.205c-.24-.257-.557-.399-.895-.399-.338 0-.655.142-.894.4a.615.615 0 0 1-.916 0 .737.737 0 0 1 0-.988A2.452 2.452 0 0 1 27 21c.684 0 1.327.287 1.81.808a.737.737 0 0 1 0 .987.623.623 0 0 1-.458.205zM19.352 23a.623.623 0 0 1-.457-.205c-.24-.257-.557-.399-.895-.399-.338 0-.655.142-.894.4a.615.615 0 0 1-.916 0 .737.737 0 0 1 0-.988A2.452 2.452 0 0 1 18 21c.684 0 1.327.287 1.81.808a.737.737 0 0 1 0 .987.623.623 0 0 1-.458.205zM30.417 8a.598.598 0 0 1-.584-.611v-.053c0-3.371-2.616-6.113-5.833-6.113s-5.833 2.742-5.833 6.113v.053a.598.598 0 0 1-.584.611.598.598 0 0 1-.583-.611v-.053C17 3.29 20.14 0 24 0s7 3.29 7 7.336v.053a.598.598 0 0 1-.583.611z"/>
        <path d="M45.388 54H.612A.601.601 0 0 1 0 53.41c0-3.817 2.354-7.256 5.997-8.76l6.579-2.716c2.976-1.228 6.911-6.628 6.95-6.682a.627.627 0 0 1 .853-.146.576.576 0 0 1 .152.82c-.169.234-4.176 5.731-7.473 7.093l-6.579 2.715c-3.003 1.24-5.007 3.98-5.233 7.087h43.508a8.048 8.048 0 0 0-.686-2.715.582.582 0 0 1 .32-.775c.31-.128.67.009.804.308a9.174 9.174 0 0 1 .808 3.77c0 .327-.274.591-.612.591z"/>
        <path d="M38.386 45.45a.608.608 0 0 1-.242-.05l-4.402-1.904c-3.304-1.429-7.453-7.27-7.628-7.517a.623.623 0 0 1 .144-.864.61.61 0 0 1 .856.145c.041.058 4.123 5.805 7.112 7.098l4.402 1.903a.621.621 0 0 1-.242 1.189zM54.615 45H51.6c-.331 0-.6-.282-.6-.629V40.63c0-.347.269-.629.6-.629h3.015C55.93 40 57 41.121 57 42.5S55.93 45 54.615 45zM52.2 43.742h2.415c.654 0 1.185-.557 1.185-1.242 0-.685-.531-1.242-1.185-1.242H52.2v2.484z"/>
        <path d="M49.012 50h-8.023a.598.598 0 0 1-.387-.144C38.894 48.402 38 45.498 38 43.38v-3.733c0-.357.276-.647.615-.647h12.77c.34 0 .615.29.615.647v3.733c0 2.118-.894 5.023-2.601 6.476a.597.597 0 0 1-.387.144zm-7.795-1.294h7.567c1.143-1.102 1.987-3.34 1.987-5.326v-3.086H39.23v3.086c0 1.986.843 4.223 1.986 5.326zM48.375 37H41.5c-1.379 0-2.5-1.196-2.5-2.667 0-1.47 1.121-2.666 2.5-2.666h1.312c.655 0 1.188-.568 1.188-1.267v-.733c0-.368.28-.667.625-.667s.625.299.625.667v.733c0 1.434-1.093 2.6-2.437 2.6H41.5c-.69 0-1.25.598-1.25 1.333 0 .736.56 1.334 1.25 1.334h6.875c.345 0 .625.298.625.666 0 .368-.28.667-.625.667zM24.67 36h-2.34C16.634 36 12 31.467 12 25.895v-9.79C12 10.533 16.634 6 22.33 6h2.34C30.366 6 35 10.533 35 16.105v9.79C35 31.467 30.366 36 24.67 36zM22.33 7.25c-4.992 0-9.052 3.973-9.052 8.856v9.789c0 4.883 4.06 8.855 9.052 8.855h2.34c4.992 0 9.052-3.972 9.052-8.855v-9.79c0-4.882-4.06-8.855-9.052-8.855h-2.34z"/>
    </g>
</svg>
