<svg xmlns="http://www.w3.org/2000/svg" width="32" height="32" viewBox="0 0 32 32">
    <g fill="none" fill-rule="evenodd">
        <g fill="#FFF" fill-rule="nonzero">
            <g>
                <g>
                    <g>
                        <path d="M19.2 16c0 1.767-1.433 3.2-3.2 3.2-1.767 0-3.2-1.433-3.2-3.2 0-1.767 1.433-3.2 3.2-3.2 1.767 0 3.2 1.433 3.2 3.2z" transform="translate(-261 -7322) translate(0 7015) translate(165 307) translate(96)"/>
                        <path d="M23.303 10.475c-.15-.407-.39-.775-.7-1.077-.303-.311-.671-.55-1.078-.7-.33-.13-.826-.282-1.74-.323-.987-.045-1.284-.055-3.785-.055-2.501 0-2.798.01-3.785.055-.914.041-1.41.194-1.74.322-.407.15-.775.39-1.077.7-.311.303-.55.671-.7 1.078-.13.33-.282.826-.323 1.74-.045.987-.055 1.284-.055 3.785 0 2.501.01 2.798.055 3.786.041.913.194 1.409.322 1.739.15.407.39.775.7 1.077.303.311.671.55 1.078.7.33.13.826.282 1.74.323.987.046 1.283.055 3.785.055 2.502 0 2.798-.01 3.785-.055.914-.041 1.41-.194 1.74-.322.817-.315 1.463-.961 1.778-1.778.128-.33.28-.826.322-1.74.046-.987.055-1.284.055-3.785 0-2.501-.01-2.798-.055-3.785-.041-.914-.194-1.41-.322-1.74zM16 20.81c-2.657 0-4.81-2.153-4.81-4.81 0-2.657 2.153-4.81 4.81-4.81 2.657 0 4.81 2.153 4.81 4.81 0 2.657-2.153 4.81-4.81 4.81zm5-8.687c-.62 0-1.123-.503-1.123-1.124 0-.62.503-1.124 1.124-1.124.62 0 1.124.503 1.124 1.124 0 .621-.503 1.124-1.124 1.124z" transform="translate(-261 -7322) translate(0 7015) translate(165 307) translate(96)"/>
                        <path d="M16 0C7.165 0 0 7.165 0 16s7.165 16 16 16 16-7.165 16-16S24.835 0 16 0zm9.132 19.788c-.044.978-.2 1.646-.427 2.23-.477 1.234-1.453 2.21-2.687 2.687-.584.227-1.252.382-2.23.427-.98.045-1.293.055-3.788.055s-2.808-.01-3.788-.055c-.978-.045-1.646-.2-2.23-.427-.613-.23-1.168-.592-1.627-1.06-.468-.458-.83-1.014-1.06-1.627-.227-.584-.382-1.252-.427-2.23-.045-.98-.056-1.293-.056-3.788s.011-2.808.056-3.788c.044-.978.2-1.646.427-2.23.23-.613.592-1.169 1.06-1.627.458-.468 1.014-.83 1.627-1.06.584-.227 1.252-.382 2.23-.427.98-.045 1.293-.056 3.788-.056s2.808.011 3.788.056c.978.045 1.646.2 2.23.427.613.23 1.169.592 1.628 1.06.467.459.829 1.014 1.06 1.627.226.584.382 1.252.426 2.23.045.98.055 1.293.055 3.788s-.01 2.808-.055 3.788z" transform="translate(-261 -7322) translate(0 7015) translate(165 307) translate(96)"/>
                    </g>
                </g>
            </g>
        </g>
    </g>
</svg>
