<svg xmlns="http://www.w3.org/2000/svg" width="32" height="32" viewBox="0 0 32 32">
    <g fill="none" fill-rule="evenodd">
        <g fill="#FFF" fill-rule="nonzero">
            <g>
                <path d="M16 0C7.164 0 0 7.164 0 16s7.164 16 16 16 16-7.164 16-16S24.836 0 16 0zm-2.667 21.333h-2.666v-8h2.666v8zM12 12.145c-.81 0-1.467-.661-1.467-1.478 0-.816.656-1.479 1.467-1.479.81 0 1.467.663 1.467 1.479 0 .817-.658 1.478-1.467 1.478zm10.667 9.188h-2.664V17.52c0-2.508-2.67-2.296-2.67 0v3.814h-2.666v-8h2.666v1.458c1.163-2.155 5.334-2.315 5.334 2.064v4.478z" transform="translate(-357 -6907) translate(357 6907)"/>
            </g>
        </g>
    </g>
</svg>
