<?xml version="1.0" encoding="UTF-8"?>
<svg width="32px" height="32px" viewBox="0 0 32 32" version="1.1" xmlns="http://www.w3.org/2000/svg" xmlns:xlink="http://www.w3.org/1999/xlink">
    <!-- Generator: sketchtool 58 (101010) - https://sketch.com -->
    <title>112D9FDB-515A-4AD0-92EB-AA89737947B5</title>
    <desc>Created with sketchtool.</desc>
    <g id="Page-1" stroke="none" stroke-width="1" fill="none" fill-rule="evenodd">
        <g id="Platform-Footer" transform="translate(-1307.000000, -937.000000)" fill="#232334" fill-rule="nonzero">
            <g id="iconmonstr-linkedin-4" transform="translate(1307.000000, 937.000000)">
                <path d="M16,0 C7.164,0 0,7.164 0,16 C0,24.836 7.164,32 16,32 C24.836,32 32,24.836 32,16 C32,7.164 24.836,0 16,0 Z M13.333,21.333 L10.667,21.333 L10.667,13.333 L13.333,13.333 L13.333,21.333 Z M12,12.145 C11.19,12.145 10.533,11.484 10.533,10.667 C10.533,9.851 11.189,9.188 12,9.188 C12.81,9.188 13.467,9.851 13.467,10.667 C13.467,11.484 12.809,12.145 12,12.145 L12,12.145 Z M22.667,21.333 L20.003,21.333 L20.003,17.52 C20.003,15.012 17.333,15.224 17.333,17.52 L17.333,21.334 L14.667,21.334 L14.667,13.334 L17.333,13.334 L17.333,14.792 C18.496,12.637 22.667,12.477 22.667,16.856 L22.667,21.334 L22.667,21.333 Z" id="Shape"></path>
            </g>
        </g>
    </g>
</svg>