<svg xmlns="http://www.w3.org/2000/svg" width="18" height="18" viewBox="0 0 18 18">
    <g fill="none" fill-rule="evenodd">
        <g>
            <g>
                <g>
                    <g>
                        <path d="M0 0H18V18H0z" transform="translate(-274 -521) translate(226 206) translate(32 301) translate(16 14)"/>
                        <path fill="#232334" fill-rule="nonzero" d="M15.46 0C16.862 0 18 1.136 18 2.538v9.23c0 1.402-1.137 2.539-2.539 2.539h-3.102v3c0 .58-.66.889-1.103.557l-.072-.061-3.592-3.496H2.538c-1.35 0-2.453-1.054-2.533-2.384L0 11.768v-9.23C0 1.136 1.136 0 2.538 0zm0 1.385H2.538c-.637 0-1.153.516-1.153 1.153v9.23c0 .638.516 1.154 1.153 1.154h5.334c.18 0 .354.07.483.196l2.619 2.548v-2.052c0-.35.26-.64.598-.686l.094-.006h3.794c.638 0 1.154-.516 1.154-1.154v-9.23c0-.637-.516-1.153-1.154-1.153zM4.384 6.23c.51 0 .923.414.923.923 0 .51-.413.923-.923.923s-.923-.413-.923-.923.414-.923.923-.923zM9 6.23c.51 0 .923.414.923.923 0 .51-.413.923-.923.923s-.923-.413-.923-.923S8.49 6.23 9 6.23zm4.615 0c.51 0 .923.414.923.923 0 .51-.413.923-.923.923s-.923-.413-.923-.923.414-.923.923-.923z" transform="translate(-274 -521) translate(226 206) translate(32 301) translate(16 14)"/>
                    </g>
                </g>
            </g>
        </g>
    </g>
</svg>
