<svg xmlns="http://www.w3.org/2000/svg" width="22" height="22" viewBox="0 0 22 22">
    <g fill="none" fill-rule="evenodd" stroke-linecap="round" stroke-linejoin="round">
        <g stroke="#232334" stroke-width="1.4">
            <g>
                <g>
                    <g>
                        <path d="M89 13.444c.004 1.467-.339 2.914-1 4.223-1.599 3.199-4.868 5.22-8.444 5.222-1.467.004-2.914-.339-4.223-1L69 24l2.111-6.333c-.661-1.31-1.004-2.756-1-4.223C70.112 9.868 72.134 6.6 75.333 5c1.31-.661 2.756-1.004 4.223-1h.555c4.795.265 8.624 4.094 8.889 8.889v.555h0z" transform="translate(-242.000000, -913.000000) translate(148.000000, 690.000000) translate(0.000000, 207.000000) translate(26.000000, 13.000000) translate(79.000000, 14.000000) scale(-1, 1) translate(-79.000000, -14.000000)"/>
                    </g>
                </g>
            </g>
        </g>
    </g>
</svg>
