<?xml version="1.0" encoding="UTF-8"?>
<svg width="115px" height="93px" viewBox="0 0 115 93" version="1.1" xmlns="http://www.w3.org/2000/svg" xmlns:xlink="http://www.w3.org/1999/xlink">
    <title>868994E4-30DE-49CA-AFF5-A007D8E0024E</title>
    <g id="Page-1" stroke="none" stroke-width="1" fill="none" fill-rule="evenodd" stroke-linecap="round" stroke-linejoin="round">
        <g id="Empty-state" transform="translate(-657.000000, -376.000000)" stroke="#A88057">
            <g id="__NO-data-" transform="translate(658.000000, 377.000000)">
                <g id="Group" transform="translate(51.000000, 38.000000)">
                    <line x1="3" y1="-7.89491929e-15" x2="0" y2="3" id="Path"></line>
                    <line x1="3" y1="3" x2="0" y2="-7.89491929e-15" id="Path"></line>
                </g>
                <g id="Group" transform="translate(67.000000, 38.000000)">
                    <line x1="3" y1="-7.89491929e-15" x2="0" y2="3" id="Path"></line>
                    <line x1="3" y1="3" x2="0" y2="-7.89491929e-15" id="Path"></line>
                </g>
                <g id="Group" transform="translate(44.000000, -0.000000)">
                    <path d="M3.72547979,0.158671098 C2.41475327,-0.186693164 1.58065458,0.0435496773 0.865712846,0.734278201 C-0.564170624,2.11573525 -0.206699756,4.87864934 1.81896849,6.95083491 C3.84463674,9.02302048 6.70440368,9.59862758 8.13428715,8.33229196 C9.56417062,6.95083491 9.20669976,4.18792082 7.18103151,2.11573525 L5.27452021,3.61231371" id="Path"></path>
                    <path d="M8.25344411,8.10204912 C8.37260107,6.49034923 6.82356064,5.2240136 5.27452021,5.10889218 C4.08295065,5.10889218 3.12969501,5.10889218 2.17643936,4.18792082 C1.34234067,3.38207087 0.0316141555,1.77037099 0.746555891,0.734278201" id="Path"></path>
                    <line x1="3.72547979" y1="0.273792518" x2="5.0362063" y2="3.72743514" id="Path"></line>
                </g>
                <g id="Group" transform="translate(98.000000, 67.000000)">
                    <path d="M2.72044811,9.24131371 C3.69534479,10.0466431 4.67024147,10.1616902 5.76700023,9.81654902 C7.71679359,9.24131371 8.56982818,6.48018422 7.59493151,3.83410179 C6.62003483,1.18801936 4.30465521,-0.537686571 2.23299977,0.152595802 C0.28320641,0.727831112 -0.569828185,3.4889606 0.405068495,6.13504303 L2.84231019,5.44476066" id="Path"></path>
                    <path d="M1.9892756,0.267642864 C1.136241,1.64820761 1.9892756,3.4889606 3.45162062,4.17924298 C4.54837938,4.63943122 5.40141398,5.09961947 5.88886232,6.13504303 C6.25444857,7.17046659 6.863759,9.12626665 5.64513815,9.81654902" id="Path"></path>
                    <line x1="2.84231019" y1="9.12626665" x2="3.08603436" y2="5.3297136" id="Path"></line>
                </g>
                <g id="Group" transform="translate(11.000000, 63.000000)">
                    <path d="M0.302921446,6.65581408 C-0.252701346,8.32515901 -0.0304522292,9.51754824 0.858544238,10.5906986 C2.52541261,12.7369992 6.19252304,12.3792824 8.970637,9.87526502 C11.8598755,7.37124762 12.8599965,3.55560207 11.1931282,1.40930144 C9.52625979,-0.73699918 5.85914937,-0.379282409 3.08103541,2.12473498 L4.9701529,4.86723023" id="Path"></path>
                    <path d="M10.9708791,1.29006252 C8.970637,1.05158467 7.08151951,2.84016853 6.85927039,4.98646915 C6.74814583,6.53657516 6.63702127,7.96744224 5.52577569,9.04059255 C4.41453011,10.1137429 2.3031635,11.7830878 0.858544238,10.5906986" id="Path"></path>
                    <line x1="0.414046004" y1="6.65581408" x2="5.19240202" y2="5.224947" id="Path"></line>
                </g>
                <line x1="91" y1="91.5" x2="105" y2="91.5" id="Path"></line>
                <line x1="0" y1="91.5" x2="32" y2="91.5" id="Path"></line>
                <path d="M113,51 C111.857143,51 111,50.3571429 111,49.5 C111,48.6428571 111.857143,48 113,48" id="Path"></path>
                <path d="M13,37 C13,38.1428571 12.3571429,39 11.5,39 C10.6428571,39 10,38.1428571 10,37" id="Path"></path>
                <path d="M87,3 C88.1428571,3 89,3.64285714 89,4.5 C89,5.35714286 88.1428571,6 87,6" id="Path"></path>
                <path d="M86.8853211,46.8461538 L87,35.6538462 C82.6422018,30.8076923 78.3990826,25.8461538 74.1559633,21 L37.1146789,21 L37,49.7307692 L43.9954128,54 L53.3990826,49.1538462 L55.0045872,50.6538462 L64.5229358,48.1153846 L69.2247706,49.8461538 L74.1559633,48.2307692 L80.1192661,49.3846154 L86.8853211,46.8461538 Z" id="Path"></path>
                <polygon id="Path" points="87 53.041543 87 91 37 91 37 54.1988131 47.3448276 57.3234421 53.4367816 53.388724 61.9425287 55.7032641 64.9310345 52.115727 71.0229885 54.5459941 76.5402299 52"></polygon>
                <polyline id="Path" points="74 26 74 36 86 36"></polyline>
                <line x1="107" y1="91.5" x2="110" y2="91.5" id="Path"></line>
            </g>
        </g>
    </g>
</svg>