<svg width="54" height="57" viewBox="0 0 54 57" xmlns="http://www.w3.org/2000/svg">
    <g fill="#000" fill-rule="nonzero">
        <path d="M6.59 21.528a1.042 1.042 0 0 0 1.69-.811v-3.114h4.42c-.013.019-.03.037-.043.056A17.633 17.633 0 0 0 9.32 27.961a17.633 17.633 0 0 0 3.316 10.308 17.724 17.724 0 0 0 7.546 5.996c.028.012.057.022.084.031A17.68 17.68 0 0 0 27 45.623a18.015 18.015 0 0 0 3.12-.277v6.503c0 1.1.438 2.157 1.218 2.935A4.166 4.166 0 0 0 34.28 56h14.56a4.166 4.166 0 0 0 2.942-1.216A4.148 4.148 0 0 0 53 51.85v-9.42a5.165 5.165 0 0 0-1.951-4.052l-3.64-2.906a1.042 1.042 0 0 0-1.689.812v3.113h-5.266c.29-.34.582-.675.844-1.038l.013-.015.011-.013a17.616 17.616 0 0 0-2.496-23.466 17.702 17.702 0 0 0-14.946-4.248V5.15c0-1.1-.438-2.157-1.218-2.935A4.166 4.166 0 0 0 19.72 1H5.16a4.166 4.166 0 0 0-2.942 1.216A4.148 4.148 0 0 0 1 5.15v9.42a5.165 5.165 0 0 0 1.951 4.052l3.64 2.905zm40.17 19.944a1.041 1.041 0 0 0 1.04-1.038v-1.992l1.95 1.556a3.1 3.1 0 0 1 1.17 2.432v9.42a2.074 2.074 0 0 1-2.08 2.075H34.28a2.074 2.074 0 0 1-2.08-2.075v-8.303a2.074 2.074 0 0 1 2.08-2.075h12.48zm-11.144-2.076c.17-.61.324-1.22.463-1.83.873.2 1.747.434 2.621.699a15.89 15.89 0 0 1-1.11 1.131h-1.974zm4.428-2.89a41.549 41.549 0 0 0-3.545-.973c.391-2.15.614-4.329.666-6.514h5.395a15.42 15.42 0 0 1-2.516 7.488zm.019-17.018a15.372 15.372 0 0 1 2.497 7.456h-5.395a41.822 41.822 0 0 0-.665-6.49 42.435 42.435 0 0 0 3.563-.969v.003zm-1.336-1.765c-.873.262-1.753.494-2.641.696a40.228 40.228 0 0 0-1.057-3.78 15.54 15.54 0 0 1 3.698 3.084zM28.04 12.455c1.478.1 2.934.41 4.324.92a38.51 38.51 0 0 1 1.684 5.463c-1.984.35-3.993.552-6.008.604v-6.987zm0 9.065a42.483 42.483 0 0 0 6.422-.647c.364 2.004.573 4.034.624 6.07H28.04V21.52zm0 7.499h7.045a39.823 39.823 0 0 1-.624 6.09 42.36 42.36 0 0 0-6.42-.664V29.02zm0 7.502c2.014.058 4.02.266 6.003.623a40.384 40.384 0 0 1-.615 2.344 4.155 4.155 0 0 0-2.26 1.325 4.14 4.14 0 0 0-1.014 2.41c-.698.143-1.404.236-2.114.281v-6.983zM13.937 19.486c1.123.36 2.242.667 3.358.923a42.142 42.142 0 0 0-.669 6.538h-5.185a15.402 15.402 0 0 1 2.496-7.46zm1.333-1.764.11-.118h2.511c-.065.259-.124.519-.183.771a41.44 41.44 0 0 1-2.438-.65v-.003zm-1.352 18.721a15.385 15.385 0 0 1-2.477-7.424h5.185c.054 2.185.277 4.362.67 6.512a43.79 43.79 0 0 0-3.375.915l-.003-.003zm1.334 1.764c.823-.243 1.642-.459 2.456-.646.277 1.214.61 2.412.997 3.596-1.288-.81-2.45-1.801-3.451-2.945l-.002-.005zM25.964 43.5a15.84 15.84 0 0 1-4.576-1.011 38.756 38.756 0 0 1-1.642-5.351 39.278 39.278 0 0 1 6.214-.625l.004 6.987zm0-9.063c-2.224.053-4.44.275-6.63.667a39.894 39.894 0 0 1-.623-6.09h7.25l.003 5.423zm-.003-7.493h-7.254c.051-2.049.26-4.09.624-6.107 2.188.4 4.405.63 6.63.684v5.423zm-2.08-13.491v-.72a15.553 15.553 0 0 1 2.08-.272v6.98a40.459 40.459 0 0 1-6.218-.639c.095-.41.2-.82.312-1.232a4.154 4.154 0 0 0 2.719-1.313 4.14 4.14 0 0 0 1.106-2.804zM3.08 5.15a2.074 2.074 0 0 1 2.08-2.076h14.56A2.074 2.074 0 0 1 21.8 5.15v8.303a2.074 2.074 0 0 1-2.08 2.075H7.24c-.575 0-1.04.465-1.04 1.038v1.993l-1.95-1.557a3.1 3.1 0 0 1-1.17-2.432V5.151z" stroke="#F9F8F2"/>
        <path d="M13 8.5a1.5 1.5 0 1 1-3 0 1.5 1.5 0 0 1 3 0M19 8.5a1.5 1.5 0 1 1-3 0 1.5 1.5 0 0 1 3 0M8 8.5a1.5 1.5 0 1 1-3 0 1.5 1.5 0 0 1 3 0M43 48.5a1.5 1.5 0 1 1-3 0 1.5 1.5 0 0 1 3 0M48 48.5a1.5 1.5 0 1 1-3 0 1.5 1.5 0 0 1 3 0M36 48.5a1.5 1.5 0 1 1-3 0 1.5 1.5 0 0 1 3 0"/>
    </g>
</svg>
