<svg width="409" height="184" viewBox="0 0 409 184" xmlns="http://www.w3.org/2000/svg">
    <g stroke="#A88057" stroke-width="1.5" fill="none" fill-rule="evenodd">
        <path d="M85 117.483H70.648V140H42.69v-22.517H1V95.215L39.35 36h31.298v59.215H85z"/>
        <path d="M42.69 95.215V64.612L23.392 95.215zM147 36v104h-21.792V56.871h-.604L101 71.801V52.3L126.516 36zM104 140.5h69M304.403 174.148h-41.54c-2.86 0-5.098-2.234-5.098-5.085 0-2.854 2.238-5.085 5.099-5.085h41.54c2.86 0 5.098 2.23 5.098 5.085 0 2.851-2.238 5.085-5.099 5.085zM313.856 139.294H215.23c1.99-.743 3.358-2.605 3.358-4.837 0-1.363-.622-2.729-1.493-3.597-.87-.868-2.238-1.488-3.607-1.488h-41.663c-2.86 0-5.099 2.233-5.099 5.085 0 2.853 2.238 5.085 5.099 5.085h10.321c-1.99.745-3.357 2.605-3.357 4.837a5.074 5.074 0 0 0 3.98 4.963h-6.344c-4.104 0-7.337 3.224-7.337 7.316 0 4.094 3.233 7.319 7.337 7.319h103.602c4.105 0 7.337-3.225 7.337-7.319 0-3.595-2.61-6.572-5.97-7.193h32.586c2.86 0 5.098-2.232 5.098-5.084-.122-2.73-2.362-5.085-5.222-5.085v-.002z"/>
        <path d="m219.21 67.357 55.096 7.566c16.667 2.356 28.73 16.993 27.735 33.736-.994 16.745-14.924 30.016-31.715 30.14l-55.346.62m22.265-69.706c-3.609-5.332-2.488-10.17 1.615-13.022.373-.248.871-.496 1.368-.745h.126c.372-.247.869-.373 1.367-.62.124 0 .124 0 .248-.124.995-.372 2.114-.621 3.36-.743h.372c.496 0 .995-.126 1.617-.126h.372c.623 0 1.245 0 1.866.124h.374c.497 0 1.12.124 1.616.248.248 0 .374 0 .622.125.623.124 1.368.248 2.114.496 11.94 3.225 19.402 13.147 23.133 19.473"/>
        <path d="M244.083 70.086c-2.362-3.35-1.491-6.574 1.12-8.31.25-.124.622-.372.872-.496h.124c.248-.125.62-.248.87-.373h.125c.62-.248 1.367-.371 2.114-.495h.248c.374 0 .622 0 .995-.126h1.741c.373 0 .623.126.995.126h.374c.497.124.87.124 1.368.247 7.71 1.985 12.934 9.427 15.296 13.52M205.405 129c-2.116-6.946-2.985-16.496-2.116-27.039 1.617-19.967 9.08-35.472 16.543-34.726 7.462.743 12.188 17.611 10.571 37.58-1.493 17.488-7.338 31.504-13.806 34.233"/>
        <path d="M246.571 71.078s14.551 25.55-1.244 67.969m11.442-8.682c-.745 2.729-1.74 5.457-2.735 8.31m5.473-20.218c-.499 2.729-1.12 5.458-1.867 8.436m-2.735-54.451s8.954 16.124 5.098 43.162m-49.624 13.768c-2.612-4.837-3.607-15.38-2.364-27.287 1.618-16.124 6.842-28.899 11.568-28.403 4.726.495 7.337 14.016 5.721 30.14-1.244 12.403-4.602 22.698-8.209 26.667M137 4.1c0-1.735 1.369-3.1 3.109-3.1a3.076 3.076 0 0 1 3.11 3.1m107.954.993c1.74-.248 3.233.992 3.358 2.728.248 1.737-.994 3.226-2.737 3.35m98.254 163.1h2.488m-11.442 0h5.347m-49.499 0h40.917m-186.308-10.17h-2.985m31.466 0h-24.998M404.771 133.341H409M188.366 38.333l-4.478 4.466m4.478 0-4.478-4.466M320.696 23.573l-4.478 4.465m4.478 0-4.478-4.465M367.085 152.815l-4.476 4.464m4.476 0-4.476-4.464M84 140.5h2M11 140.5h69M61 179l-4 4m4 0-4-4"/>
    </g>
</svg>
