<svg xmlns="http://www.w3.org/2000/svg" xmlns:xlink="http://www.w3.org/1999/xlink" width="16" height="16" viewBox="0 0 16 16">
    <defs>
        <path id="r1we18i1ca" d="M0 0H16V16H0z"/>
    </defs>
    <g fill="none" fill-rule="evenodd">
        <g>
            <g>
                <g>
                    <g>
                        <g>
                            <g transform="translate(-461 -312) translate(226 206) translate(136 32) translate(0 35) translate(99 35) translate(0 4)">
                                <mask id="nnzytdjsxb" fill="#fff">
                                    <use xlink:href="#r1we18i1ca"/>
                                </mask>
                                <path fill="#232334" fill-rule="nonzero" d="M12.798 5.774c-.007-.295-.04-.583-.098-.862-.016-.08-.034-.158-.054-.237-.04-.156-.089-.31-.143-.46-.028-.075-.057-.149-.088-.222-.031-.073-.064-.146-.098-.217-.035-.072-.07-.142-.108-.212-.038-.07-.078-.138-.118-.205-.02-.034-.042-.067-.063-.1-.17-.265-.365-.513-.581-.74-.135-.142-.28-.275-.43-.4-.06-.05-.122-.099-.185-.146-.283-.211-.59-.393-.916-.54-.072-.033-.145-.064-.22-.093C9.14 1.12 8.535 1 7.9 1 5.194 1 3 3.194 3 5.9c0 2.59 4.49 9.201 4.873 9.761l.027.039s.579-.838 1.339-2.048l.211-.34c.144-.231.292-.474.443-.724.15-.25.304-.51.457-.773.23-.396.46-.804.68-1.214.075-.137.148-.274.22-.411l.211-.41c.07-.137.137-.273.203-.408.098-.203.193-.404.283-.602.149-.33.284-.652.4-.96.28-.741.453-1.403.453-1.91 0-.042 0-.085-.002-.126zM7.9 8.35c-1.406 0-2.547-1.14-2.547-2.547 0-1.393 1.12-2.525 2.509-2.545l.038-.001c1.406 0 2.546 1.14 2.546 2.546 0 1.407-1.14 2.547-2.546 2.547z" mask="url(#nnzytdjsxb)"/>
                            </g>
                        </g>
                    </g>
                </g>
            </g>
        </g>
    </g>
</svg>
