<svg xmlns="http://www.w3.org/2000/svg" width="58" height="58" viewBox="0 0 58 58">
    <g fill="none" fill-rule="evenodd">
        <g fill-rule="nonzero">
            <g transform="translate(-417 -763) translate(417 763)">
                <path fill="#6DA544" d="M0 29c0 12.469 7.87 23.099 18.913 27.196L21.435 29 18.913 1.804C7.87 5.9 0 16.53 0 29z"/>
                <path fill="#D80027" d="M58 29C58 12.984 45.016 0 29 0c-3.547 0-6.945.638-10.087 1.804v54.392C22.055 57.362 25.453 58 29 58c16.016 0 29-12.984 29-29z"/>
                <circle cx="18.913" cy="29" r="10.087" fill="#FFDA44"/>
                <path fill="#D80027" d="M13.24 23.956v6.305c0 3.133 2.54 5.674 5.673 5.674 3.134 0 5.674-2.54 5.674-5.674v-6.305H13.239z"/>
                <path fill="#F0F0F0" d="M18.913 32.152c-1.043 0-1.891-.848-1.891-1.891v-2.522h3.782v2.522c0 1.043-.848 1.891-1.89 1.891z"/>
            </g>
        </g>
    </g>
</svg>
