<svg xmlns="http://www.w3.org/2000/svg" width="31" height="30" viewBox="0 0 31 30">
    <g fill="none" fill-rule="evenodd">
        <path d="M0 0H30V30H0z" transform="translate(.29)"/>
        <path fill="#979797" fill-rule="nonzero" d="M7.863 7.863c3.212-3.211 8.42-3.211 11.63 0 2.93 2.93 3.188 7.519.773 10.74l3.935 3.937c.46.459.46 1.203 0 1.661-.42.42-1.08.456-1.54.105l-.121-.105-3.937-3.935c-3.221 2.415-7.81 2.157-10.74-.772-3.211-3.212-3.211-8.419 0-11.63zm9.97 1.662c-2.295-2.294-6.014-2.294-8.308 0-2.294 2.294-2.294 6.013 0 8.307 2.294 2.294 6.013 2.294 8.307 0 2.294-2.294 2.294-6.013 0-8.307z" transform="translate(.29)"/>
    </g>
</svg>
