<svg xmlns="http://www.w3.org/2000/svg" width="111" height="38" viewBox="0 0 111 38">
    <g fill="none" fill-rule="evenodd">
        <g>
            <g>
                <path fill="#333" fill-rule="nonzero" d="M51.583 26.66c.02.235.02.47 0 .705v.926c-.008.15-.088.286-.213.367-.09.07-.195.117-.306.139-.144.01-.288.01-.431 0-.9-.025-2.242-.036-4.027-.033h-1.998c-.177.018-.356-.026-.505-.125-.093-.079-.134-.264-.134-.551V8.036c0-.31.065-.506.213-.589.235-.087.487-.118.737-.093h6.024c.39.024.589.167.612.431.027.276.036.553.028.83.01.286 0 .572-.028.857-.013.086-.05.166-.107.232-.06.058-.135.095-.218.106-.079.022-.16.039-.24.051-.098.01-.195.01-.292 0h-3.23c-.259-.026-.52.004-.765.089-.169.157-.25.387-.218.616v5.811c.013.176.136.324.306.37.251.065.511.087.77.066h1.964c.199-.007.37.137.399.333.06.315.07.637.032.955.011.298 0 .597-.032.894-.037.163-.172.265-.399.302H47.56c-.278-.02-.557.002-.83.064-.18.137-.273.36-.245.584v5.978c.084.229.315.369.556.339h3.87c.394.018.616.153.672.398zM62.162 28.074c-.037-.116-.066-.233-.088-.353 0-.088-.046-.217-.046-.259-.088-.399-.13-.704-.176-.88-.264-1.39-.524-2.633-.746-3.773-.088-.463-.176-1.098-.348-1.89-.042-.152-.072-.307-.088-.464-.045-.173-.075-.35-.088-.528-.09-.24-.09-.506 0-.746.156-.22.331-.424.524-.612.185-.18.342-.388.463-.616.05-.29.065-.583.047-.876V9.333c.01-.241-.034-.482-.13-.704-.194-.244-.4-.477-.616-.7-.143-.147-.298-.28-.464-.399-.127-.055-.259-.099-.394-.13-.134 0-.264-.046-.398-.046-.147-.003-.293.012-.436.047h-4.217c-.463 0-.746.041-.834.176-.05.26-.064.524-.042.788V27.72c-.021.28-.007.56.042.835.088.134.264.222.616.222h.927c.436 0 .7-.046.746-.134.046-.088.13-.348.13-.834v-7.68c0-.263-.042-.44 0-.463-.012-.077.004-.156.046-.222.219-.152.498-.185.746-.088.195.038.358.17.436.352 0 .046.088.352.176.876.039.152.068.307.088.463.043.142.073.288.088.436.176.834.306 1.492.394 1.89.088.4.176 1.053.352 1.928.176.876.31 1.497.399 1.891.083.612.13.927.13.964.014.186.11.356.264.463.183.112.398.16.611.135h1.099c.097.044.208.044.305 0 .091.007.182-.009.265-.046.069 0 .134-.033.176-.089.049-.078.079-.167.088-.259-.033-.092-.049-.19-.047-.287zm-2.984-11.456c-.046.13-.176.218-.44.218h-1.01c-.322.022-.646.008-.964-.042-.047 0-.088-.046-.135-.046-.046 0-.041-.088-.041-.13 0-.042 0-.088-.047-.088v-5.44c-.024-.31-.008-.622.047-.927.088-.176.305-.264.611-.264h1.798c.127.107.193.27.176.435l.005 6.284zM72.242 27.212v1.047c.006.195-.087.38-.246.491-.256.089-.528.12-.797.093h-5.593c-.25.025-.502-.007-.737-.093-.144-.079-.213-.278-.213-.584v-1.075c0-.389.078-.625.245-.704.101-.043.21-.064.32-.06h6.497c.176-.024.352.047.463.185.055.229.075.465.06.7zM72.126 24.125c-.046-.134-.046-.394-.135-.704-.025-.173-.04-.348-.041-.524-.047-.176-.13-1.01-.352-2.414-.088-.528-.218-1.363-.353-2.46-.134-1.1-.305-1.975-.394-2.545-.088-.57-.176-1.362-.352-2.46-.176-1.099-.26-1.928-.347-2.503-.264-1.668-.352-2.503-.352-2.503-.089-.347-.177-.523-.311-.57h-2.104c-.046 0-.088.047-.134.047-.047 0-.042.088-.088.13-.047.041-.042.134-.042.176V8.1c-.088.399-.176 1.233-.394 2.461 0 .218-.222 1.854-.704 4.87-.306 2.318-.57 3.954-.7 4.918-.176 1.274-.31 2.108-.352 2.548 0 0-.088.394-.176 1.14-.088.524-.042.788.041.876.043.055.107.087.176.088.07.034.146.05.223.047h1.27c.134 0 .222-.047.352-.047.245-.127.398-.381.394-.658v-.088c0-.13 0-.218.046-.264.046-.046.042-.088.088-.13.077-.056.17-.086.264-.088h1.228c.353 0 .529 0 .57.042.042.042.13.134.176.31.088.436.177.7.306.788.065.048.142.079.223.088.087.007.174.023.26.047h1.274c.134-.047.217-.047.352-.088.134-.042.13-.353.088-.835zm-2.896-3.072c0 .13-.089.218-.265.218h-1.163c-.111-.127-.145-.305-.088-.464.088-.787.135-1.357.176-1.668.218-1.534.352-2.456.394-2.896.042-.44.088-.7.088-.746v-.047c.047-.218.135-.264.176-.088 0 .047.047.264.088.793.047.264.088.463.135.7.041.352.083.926.171 1.668.08.392.14.788.176 1.186 0 .176.047.394.088.746.042.352.065.556.024.598zM100.297 7.595c.038.267.027.54-.033.802-.023.223-.05.56-.088 1.01-.017.258-.05.515-.097.77-.079.862-.204 2.062-.366 3.596-.025.204-.27 2.621-.737 7.252-.125 1.312-.246 2.516-.37 3.624-.186 1.888-.288 2.983-.306 3.286 0 .463-.167.736-.431.801-.245.034-.491.045-.737.033h-1.72c-.246.012-.492.001-.736-.033-.288-.065-.464-.338-.464-.83 0-.04-.113-1.165-.338-3.377-.16-1.768-.284-2.966-.37-3.597v-.231c-.006-.108-.006-.217 0-.325-.043-.125-.084-.185-.126-.185-.042 0-.032.032-.042.097-.007.065-.007.13 0 .195-.003.109-.012.217-.027.324-.024.306-.051.626-.098.955-.037.463-.102 1.112-.18 1.979-.08.866-.135 1.39-.158 1.612l-.088.835c-.042.393-.074.695-.097.926-.038.343-.065.626-.088.825 0 .238-.064.472-.186.677-.194.116-.418.17-.644.157h-.936c-1.15 0-1.733 0-1.752-.032-.092.002-.183-.02-.264-.065-.061-.032-.117-.072-.167-.12-.05-.062-.087-.135-.106-.214-.026-.07-.041-.143-.047-.217v-.26-.232c0-.143-.041-.338-.06-.579-.018-.24-.042-.463-.06-.667-.019-.204-.047-.38-.06-.566-.618-6.002-1.111-10.826-1.479-14.472 0-.204-.05-.514-.092-.927-.042-.412-.075-.704-.088-.89-.006-.175-.022-.35-.047-.523-.032-.227-.055-.427-.079-.612-.021-.174-.032-.349-.032-.524-.009-.143.053-.282.167-.37.092-.069.198-.116.31-.14h1.233c.231-.03.465.036.644.186.102.133.156.296.153.463 0 .102.042.255.065.464.023.208.028.324.028.366.125 1.15.185 1.742.185 1.784.16 1.517.284 2.727.37 3.629.06.636.172 1.767.34 3.392.161 1.631.291 2.882.398 3.763v.384c0 .153.023.302.037.431.014.13 0 .265.041.385.042.12.051.278.093.278s.074-.107.093-.31c0-.078.092-1.05.278-2.92.123-1.128.369-3.545.737-7.252.185-1.743.309-2.92.37-3.532-.004-.07-.004-.142 0-.213.004-.072.004-.145 0-.218-.006-.07-.006-.142 0-.213.005-.072.005-.145 0-.218v-.148c.004-.068.004-.136 0-.204.003-.054.019-.106.047-.153.031-.051.08-.089.139-.106.023-.023.102-.023.25 0h2.058c.045.051.077.113.092.18.025.174.034.35.028.524 0 .185.051.464.093.876.041.412.074.704.092.927.038.347.084.732.12 1.15.038.416.084.852.126 1.292.042.44.079.825.125 1.15.448 4.324.694 6.742.737 7.252 0 .083 0 .324.06.723.06.398.07.713.093.926.015.164.065.322.148.464 0 0 .037-.079.037-.246v-.111c-.004-.03-.004-.059 0-.088.005-.035.005-.071 0-.107v-.092c.023-.209.051-.515.093-.927.079-.616.144-1.21.185-1.784.433-4.18.678-6.587.737-7.22.204-1.965.33-3.184.366-3.657v-.26c0-.129 0-.24.028-.323.014-.094.034-.187.06-.279.028-.092.077-.176.144-.245.068-.064.153-.106.246-.12H99.745c.334-.033.496.046.552.19zM109.533 26.711c.046.307.068.617.065.927.02.3-.013.601-.098.89-.112.159-.296.251-.491.245h-6.298c-.155.005-.31-.004-.463-.027-.186-.084-.274-.343-.274-.77v-.792c.008-.066.008-.133 0-.2-.004-.061-.004-.123 0-.185.05-.167.147-.316.278-.43.221-.058.45-.078.677-.061h5.654c.246-.012.492-.001.737.032.131.078.212.219.213.371zM101.974 9.468v-.765c-.01-.238.011-.476.06-.71.088-.294.34-.51.645-.55.213-.027.429-.038.644-.033h5.315c.228-.02.457.002.677.065.125.037.208.195.245.463.038.27.038.603.038.89V9.412c-.006.064-.021.126-.047.185-.026.05-.057.096-.092.14-.038.047-.085.085-.14.11l-.199.06h-3.47c-.072.005-.143.005-.214 0H105c-.074.01-.146.032-.213.066-.062.03-.118.07-.167.12-.051.05-.088.112-.106.18-.035.23-.047.464-.037.696v3.012c-.014.133-.014.266 0 .399.013.101.043.2.088.292.048.108.13.199.232.26.146.062.303.098.463.106.206.01.412 0 .616-.028.168-.027.336-.044.505-.051h.862c.207-.008.41.047.584.158.099.134.152.296.153.463v1.395c-.004.058-.02.115-.046.167l-.06.143c-.02.05-.058.088-.107.107l-.171.06c-.234.028-.47.037-.705.028-.366 0-.676 0-.927-.028H105.241c-.103.003-.206.02-.305.051-.115.017-.22.077-.292.167-.12.145-.177.332-.158.519v3.536c-.026.213.018.43.125.616.105.134.266.213.436.213h3.47c.268-.016.536.004.798.06.159.056.267.203.273.371.036.286.049.574.037.862.01.256-.002.512-.037.765-.006.168-.114.315-.273.37-.232.06-.47.091-.71.093h-5.222c-.298.018-.597-.002-.89-.06-.329-.125-.49-.51-.49-1.168V9.467h-.029zM79.04 17.499c-.12-.001-.24-.018-.357-.051-.524-.21-.816-.772-.686-1.321l1.117-3.457c-.65.43-1.456.547-2.201.32-.135-.037-.239-.146-.267-.283-.03-.137.022-.278.131-.366.11-.087.259-.105.386-.047.464.172 1.594.153 2.4-1.144.385-1.604 1.289-4.412 1.326-4.528.105-.271.313-.49.58-.607.265-.118.567-.124.838-.018.593.203.853.709.77 1.496-.075.714-.788 2.619-1.474 3.244-.369.33-.81.569-1.289.695l-.463 1.414c.57.167 1.696.255 2.831-1.854.1-.179.325-.245.506-.148.176.1.24.322.143.5-.996 1.854-2.108 2.317-3.058 2.285.588.943.575 2.142-.033 3.072-.22.469-.683.776-1.2.798zm-.338-1.196s-.037.366.194.436c.102.032.376.11.705-.404.037-.065.857-1.39-.107-2.456l-.792 2.424zm2.868-9.384s-.667 2.09-1.098 3.675c.232-.1.446-.236.635-.404.523-.463 1.177-2.182 1.233-2.757.055-.574-.06-.649-.274-.723-.092-.049-.201-.053-.297-.013-.096.04-.17.122-.199.222z" transform="translate(-133 -71) translate(133 71)"/>
                <path fill="#333" fill-rule="nonzero" d="M75.435 14.014c-.618.01-1.208-.258-1.608-.728-.472-.592-.659-1.362-.51-2.104.25-1.501 1.57-2.73 2.938-2.739.615-.01 1.203.256 1.603.723.471.593.658 1.362.51 2.104-.255 1.502-1.57 2.73-2.938 2.744h.005zm.843-4.834c-1.024 0-2.02.96-2.215 2.123-.11.528.015 1.078.343 1.506.26.304.643.475 1.043.463 1.024 0 2.02-.96 2.215-2.122.112-.528-.016-1.077-.348-1.502-.257-.305-.639-.477-1.038-.468z" transform="translate(-133 -71) translate(133 71)"/>
                <path stroke="#333" stroke-linecap="round" stroke-width="1.28" d="M43.978 1.96L109.593 1.96" transform="translate(-133 -71) translate(133 71)"/>
                <path fill="#333" fill-rule="nonzero" d="M96.358 37.194l1.34-1.182c.564-.505.768-.792.768-1.159.002-.194-.077-.38-.217-.514-.14-.135-.33-.205-.524-.195-.42.02-.798.262-.992.635l-.306-.222c.257-.495.773-.8 1.33-.788.293-.022.582.078.799.277.216.198.342.477.346.77 0 .538-.287.872-.927 1.437l-.978.885h1.96v.38h-2.58l-.02-.324zM99.592 35.678c0-1.033.617-1.909 1.567-1.909s1.552.867 1.552 1.9-.611 1.91-1.561 1.91-1.558-.863-1.558-1.9zm2.688 0c0-.806-.463-1.529-1.13-1.529-.668 0-1.127.704-1.127 1.52 0 .806.464 1.53 1.136 1.53.672 0 1.121-.71 1.121-1.52zM103.24 37.194l1.339-1.182c.565-.505.774-.792.774-1.159.001-.195-.078-.382-.22-.516-.14-.134-.332-.204-.526-.193-.42.021-.797.263-.992.635l-.306-.222c.257-.494.773-.8 1.33-.788.293-.023.583.076.8.275.217.199.342.478.345.772 0 .538-.283.872-.927 1.437l-.987.876h1.932v.38h-2.581l.019-.315zM106.479 35.678c0-1.033.616-1.909 1.566-1.909.95 0 1.553.867 1.553 1.9s-.617 1.91-1.567 1.91-1.552-.863-1.552-1.9zm2.683 0c0-.806-.463-1.529-1.13-1.529-.668 0-1.122.704-1.122 1.52 0 .806.463 1.53 1.135 1.53.672 0 1.117-.71 1.117-1.52zM21.299 14.208l-.181-.139-.047-.032-.194-.13-.079-.05-.116-.07-.111-.06-.083-.047-.241-.116H20.2c-.05-.028-.106-.046-.157-.07l-.176-.064v9.37l.176-.065.162-.065h.046l.246-.116.079-.046.11-.06.117-.07.078-.05c.065-.038.13-.084.195-.126l.046-.037.181-.139c.726-.58 1.276-1.35 1.59-2.224h6.742c.076-.552.115-1.107.116-1.664.015-5.762-4.207-10.658-9.908-11.493v3.342c3.245.666 5.782 3.201 6.451 6.446h-3.406c-.314-.875-.864-1.645-1.59-2.225zM16.516 22.8v-9.403c-1.417.504-2.531 1.619-3.035 3.036H6.729c-.914 6.323 3.465 12.193 9.787 13.119v-3.341c-3.245-.667-5.781-3.202-6.45-6.446h3.415c.504 1.416 1.618 2.531 3.035 3.035z" transform="translate(-133 -71) translate(133 71)"/>
                <path fill="#A67C52" fill-rule="nonzero" d="M0 18.101c.002 9.394 7.161 17.239 16.516 18.096v-3.304c-6.891-.77-12.338-6.197-13.133-13.085-.796-6.89 3.271-13.414 9.806-15.735v3.583c-2.384 1.143-4.306 3.066-5.45 5.45h3.837c1.212-1.607 2.969-2.716 4.94-3.12V0C7.16.858 0 8.705 0 18.101zM19.843 0v3.304c6.894.77 12.343 6.2 13.138 13.09.795 6.891-3.273 13.419-9.81 15.74v-3.592c2.383-1.144 4.306-3.066 5.45-5.45h-3.833c-1.215 1.606-2.972 2.714-4.945 3.119v9.986c9.353-.86 16.51-8.706 16.51-18.098C36.353 8.706 29.196.86 19.843 0z" transform="translate(-133 -71) translate(133 71)"/>
                <path stroke="#333" stroke-linecap="round" stroke-width="1.28" d="M93.007 34.237L43.978 34.237" transform="translate(-133 -71) translate(133 71)"/>
            </g>
        </g>
    </g>
</svg>
