<svg width="47" height="58" viewBox="0 0 47 58" xmlns="http://www.w3.org/2000/svg">
    <path d="M44.184 1H2.816A1.823 1.823 0 0 0 1 2.826v52.348C1 56.18 1.814 57 2.816 57h41.368A1.823 1.823 0 0 0 46 55.174V2.826A1.823 1.823 0 0 0 44.185 1zm.606 54.174a.608.608 0 0 1-.606.609H2.815a.608.608 0 0 1-.605-.61V2.826c0-.336.272-.61.606-.61h41.368c.334 0 .606.274.606.61v52.348zM11.848 8.83c0-.336.271-.608.605-.608H34.55c.334 0 .605.272.605.608a.607.607 0 0 1-.605.61H12.453a.607.607 0 0 1-.605-.61zM40.52 17.75a.607.607 0 0 1-.605.609h-4.734a.607.607 0 0 1-.605-.609c0-.336.271-.609.605-.609h4.734c.334 0 .605.273.605.61zm-7.303-.609c.334 0 .605.273.605.61a.607.607 0 0 1-.605.608h-2.01a.607.607 0 0 1-.606-.609c0-.336.27-.609.605-.609h2.01zm-3.717 0c.334 0 .605.273.605.61a.607.607 0 0 1-.605.608h-1.109a.607.607 0 0 1-.605-.609c0-.336.271-.609.605-.609h1.11zm11.02 5.11a.607.607 0 0 1-.605.609H28.39a.607.607 0 0 1-.605-.61c0-.335.27-.608.605-.608h11.524c.334 0 .605.273.605.609zm0 4.5a.607.607 0 0 1-.605.61H28.39a.607.607 0 0 1-.605-.61c0-.335.27-.608.605-.608h11.524c.334 0 .605.273.605.609zm-25.445 3.585c4.82 0 8.596-2.065 8.596-4.702 0-.552-.173-1.075-.478-1.563 1.278-.616 2.14-1.758 2.14-3.065 0-1.67-1.403-3.07-3.285-3.448-.076-1.938-3.045-3.392-6.973-3.392-3.98 0-6.98 1.49-6.98 3.467v4.47c0 .245.018.485.05.723-1.046.779-1.667 1.745-1.667 2.807 0 2.638 3.777 4.703 8.597 4.703zm9.049-9.33c0 1.052-.933 1.936-2.204 2.226.026-.118.058-.233.076-.353.97-.294 1.642-1.01 1.642-1.874 0-.846-.644-1.554-1.583-1.858v-.34c1.202.321 2.069 1.183 2.069 2.199zm-2.07-.513c.229.149.374.333.374.513 0 .178-.146.363-.373.512v-1.025zm-6.98-5.11c3.303 0 5.77 1.188 5.77 2.25 0 .412-.374.842-1.02 1.215-.307-.89-2.313-1.578-4.75-1.578-2.435 0-4.442.688-4.749 1.578-.646-.373-1.02-.803-1.02-1.215 0-1.062 2.468-2.25 5.77-2.25zm0 5.718c2.455 0 4.535-.568 5.77-1.467v2.47c0 1.545-.874 2.953-2.228 3.589a8.337 8.337 0 0 1-7.084 0c-1.353-.636-2.227-2.044-2.227-3.589v-2.47c1.235.899 3.315 1.467 5.77 1.467zm-6.58 2.996c.48 1.173 1.364 2.153 2.526 2.699a9.475 9.475 0 0 0 4.055.908 9.47 9.47 0 0 0 4.054-.908 5.057 5.057 0 0 0 2.317-2.257c.186-.015.367-.041.545-.074.302.38.468.777.468 1.168 0 1.683-2.967 3.486-7.385 3.486-4.418 0-7.385-1.803-7.385-3.486 0-.52.285-1.05.805-1.536zm4.884 22.16a.607.607 0 0 1-.605.609H7.752a.607.607 0 0 1-.606-.609c0-.336.271-.609.606-.609h5.02c.335 0 .606.273.606.609zm4.217 0a.607.607 0 0 1-.606.609h-2.644a.607.607 0 0 1-.606-.609c0-.336.271-.609.606-.609h2.644c.335 0 .606.273.606.609zm2.985-4.501a.607.607 0 0 1-.605.609H7.752a.607.607 0 0 1-.606-.61c0-.335.271-.608.606-.608h12.223c.334 0 .605.273.605.609zm0-4.501a.607.607 0 0 1-.605.609H7.752a.607.607 0 0 1-.606-.61c0-.335.271-.608.606-.608h12.223c.334 0 .605.273.605.609zm17.651-.827c-.347-.648-.945-1.035-1.6-1.035h-2.01c-.108-.739-.341-1.46-.824-1.864-.283-.236-.77-.473-1.49-.254-.998.304-1.397 1.39-1.602 2.285-.358.172-.666.47-.88.869l-1.329 2.483a2.54 2.54 0 0 0-.29 1.193v3.847a7.635 7.635 0 0 1-1.965 1.09h-3.598a.607.607 0 0 0-.606.61v3.78c0 .337.271.61.606.61h3.76a.607.607 0 0 0 .604-.61v-3.384c.368-.156.777-.359 1.198-.618v3.475c0 .782.56 1.419 1.249 1.419h9.15c.688 0 1.248-.637 1.248-1.42v-8.8c0-.423-.101-.836-.292-1.192l-1.329-2.484zM25.798 48.823h-2.55V46.26h2.55v2.563zm6.86-14.384c.245-.074.326-.007.365.025.182.152.3.5.373.928h-1.391c.176-.548.398-.875.653-.953zm5.984 14.465c0 .125-.053.197-.039.202l-9.115.008c-.02-.013-.072-.085-.072-.21v-8.799c0-.22.052-.44.147-.617l1.329-2.483c.132-.247.332-.395.534-.395h2.059c0 .201-.004.4-.015.588h-.451a.607.607 0 0 0-.605.61c0 .335.27.608.605.608h2.02a.607.607 0 0 0 .605-.609.607.607 0 0 0-.605-.609h-.356c.01-.173.016-.373.017-.588h1.931c.203 0 .403.148.535.395l1.328 2.483c.095.178.147.397.147.617v8.8zm-3.293-8.69c-1.52-.588-3.347.49-4.075 2.398-.728 1.908-.084 3.938 1.435 4.523.284.11.58.164.88.164.51 0 1.032-.156 1.527-.464.734-.456 1.327-1.201 1.669-2.097.727-1.908.083-3.938-1.436-4.524zm-2.076 6.051a.605.605 0 0 1-.602-.608c0-.073.01-.146.037-.218l1.512-3.964a.61.61 0 0 1 .119-.19.598.598 0 0 1 1.047.408c0 .073-.009.147-.036.218l-1.512 3.964a.6.6 0 0 1-.124.191.602.602 0 0 1-.44.2z" fill="#000" fill-rule="nonzero" stroke="#FFF" stroke-width=".25"/>
</svg>
