<svg xmlns="http://www.w3.org/2000/svg" width="58" height="58" viewBox="0 0 58 58">
    <g fill="none" fill-rule="evenodd">
        <g fill-rule="nonzero">
            <g transform="translate(-419 -270) translate(419 270)">
                <circle cx="29" cy="29" r="29" fill="#FFDA44"/>
                <g fill="#0052B4">
                    <path d="M23.251 25.217H58C56.163 10.99 44.104 0 29.5 0c-2.146 0-4.237.24-6.249.69v24.527zM14.753 25.217V3.527C6.861 7.87 1.211 15.84 0 25.216h14.753zM14.753 32.783H0c1.21 9.377 6.86 17.346 14.753 21.69v-21.69zM23.251 32.783V57.31c2.012.45 4.103.689 6.249.689C44.104 58 56.163 47.011 58 32.783H23.251z"/>
                </g>
            </g>
        </g>
    </g>
</svg>
