<svg xmlns="http://www.w3.org/2000/svg" width="36" height="36" viewBox="0 0 36 36">
    <g fill="none" fill-rule="evenodd">
        <g>
            <g transform="translate(-748.000000, -1127.000000) translate(748.000000, 1127.000000)">
                <circle cx="18" cy="18" r="18" fill="#747588" fill-opacity=".083"/>
                <g stroke="#232334" stroke-linecap="round" stroke-linejoin="round" stroke-width="1.4">
                    <g>
                        <path d="M12.193 7.35v-4.2C12.193 1.41 10.83 0 9.145 0L5.081 9.45V21h11.461c1.014.012 1.88-.75 2.033-1.785l1.402-9.45c.09-.61-.084-1.228-.476-1.693-.391-.465-.96-.73-1.556-.722h-5.752zM5.081 21H2.032C.91 21 0 20.06 0 18.9v-7.35c0-1.16.91-2.1 2.032-2.1h3.049" transform="translate(8.000000, 7.000000) translate(10.000000, 10.500000) scale(-1, 1) translate(-10.000000, -10.500000)"/>
                    </g>
                </g>
            </g>
        </g>
    </g>
</svg>
