<svg xmlns="http://www.w3.org/2000/svg" width="32" height="32" viewBox="0 0 32 32">
    <g fill="none" fill-rule="evenodd">
        <g fill="#232334" fill-rule="nonzero">
            <g>
                <g>
                    <path d="M64 0c-8.835 0-16 7.165-16 16s7.165 16 16 16 16-7.165 16-16S72.835 0 64 0zm7.02 12.4c.008.156.011.312.011.469 0 4.785-3.643 10.303-10.306 10.303-2.046 0-3.95-.599-5.553-1.626.284.033.572.05.864.05 1.698 0 3.26-.579 4.5-1.55-1.586-.03-2.923-1.077-3.385-2.516.221.043.448.066.681.066.33 0 .651-.045.955-.128-1.657-.331-2.906-1.796-2.906-3.55v-.046c.489.272 1.047.435 1.641.453-.972-.649-1.612-1.758-1.612-3.014 0-.664.18-1.285.491-1.82 1.786 2.19 4.456 3.632 7.467 3.783-.063-.265-.095-.541-.095-.825 0-2 1.623-3.621 3.623-3.621 1.042 0 1.983.44 2.644 1.144.825-.163 1.6-.464 2.3-.88-.27.846-.845 1.555-1.593 2.004.733-.088 1.432-.282 2.08-.57-.484.726-1.099 1.364-1.806 1.875z" transform="translate(-1211 -937) translate(0 827) translate(1163 110)"/>
                </g>
            </g>
        </g>
    </g>
</svg>
