<?xml version="1.0" encoding="UTF-8"?>
<svg width="32px" height="32px" viewBox="0 0 32 32" version="1.1" xmlns="http://www.w3.org/2000/svg" xmlns:xlink="http://www.w3.org/1999/xlink">
    <title>ED89AE03-BC58-42F4-AC66-58DBB55966BB</title>
    <g id="Page-1" stroke="none" stroke-width="1" fill="none" fill-rule="evenodd">
        <g id="01_Home_Web" transform="translate(-213.000000, -5098.000000)" fill="#FFFFFF" fill-rule="nonzero">
            <g id="Footer-Web" transform="translate(0.000000, 4791.000000)">
                <g id="Group-15" transform="translate(165.000000, 307.000000)">
                    <path d="M64,0 C55.1647949,0 48,7.16479494 48,16 C48,24.8352051 55.1647949,32 64,32 C72.8352051,32 80,24.8352051 80,16 C80,7.16479494 72.8352051,0 64,0 Z M71.0207943,12.4009134 C71.0277778,12.5561918 71.0311491,12.7121923 71.0311491,12.868915 C71.0311491,17.6541354 67.3877048,23.1721731 60.7247531,23.1724138 L60.7249939,23.1724138 L60.7247531,23.1724138 C58.6790784,23.1724138 56.7754811,22.5729673 55.1724138,21.545723 C55.4558463,21.5791861 55.7443358,21.5957972 56.0364374,21.5957972 C57.7336611,21.5957972 59.2955501,21.0170545 60.535477,20.0456622 C58.949748,20.0162917 57.6127749,18.9693066 57.1513843,17.5303942 C57.3722064,17.5727647 57.5992896,17.5958759 57.8321522,17.5958759 C58.1627833,17.5958759 58.4830596,17.5513387 58.7874425,17.4682829 C57.1299523,17.136541 55.8813563,15.67211 55.8813563,13.9185483 C55.8813563,13.9021779 55.8813563,13.8874926 55.8818379,13.8723259 C56.3699583,14.1436417 56.9281541,14.3068645 57.5224714,14.3251609 C56.5498428,13.6763623 55.9104942,12.5672658 55.9104942,11.3108355 C55.9104942,10.6473518 56.0898971,10.025757 56.4010227,9.49058848 C58.1873459,11.6818183 60.8569574,13.1228974 63.8675549,13.2743239 C63.8054261,13.0090266 63.7733985,12.7326553 63.7733985,12.4485803 C63.7733985,10.4494622 65.3957305,8.82758621 67.3961332,8.82758621 C68.4381149,8.82758621 69.3791975,9.26790254 70.0402189,9.97183091 C70.8654723,9.8090896 71.6403965,9.50768115 72.3404291,9.09288339 C72.0695187,9.93812709 71.4954294,10.6473518 70.7474758,11.0958533 C71.4802584,11.0082234 72.1786053,10.8139449 72.8275862,10.5255365 C72.3428372,11.2518539 71.7280511,11.8898191 71.0207943,12.4009134 Z" id="Shape"></path>
                </g>
            </g>
        </g>
    </g>
</svg>