<svg width="43" height="43" xmlns="http://www.w3.org/2000/svg">
    <g transform="translate(1 1)" fill="none" fill-rule="evenodd">
        <rect stroke="#F1F1F1" fill="#FFF" width="41" height="41" rx="4"/>
        <g fill="#80460B" fill-rule="nonzero">
            <path d="M22.177 30.67H17.33c-3.192 0-5.793-2.617-5.793-5.829v-6.78c0-.237.236-.475.473-.475h19.507c1.3 0 2.483 1.07 2.483 2.498v2.14a3.314 3.314 0 0 1-3.31 3.331h-2.601c-.473 2.855-2.838 5.115-5.912 5.115zm-9.694-12.251v6.303c0 2.736 2.128 4.877 4.847 4.877h4.847a4.836 4.836 0 0 0 4.848-4.639V18.3l-14.542.119zm20.453 3.687v-2.141c0-.833-.71-1.428-1.419-1.428H28.09v6.067h2.482c1.3-.12 2.365-1.19 2.365-2.498zM10.473 31.264h18.68c.236 0 .473.238.473.476s-.237.476-.473.476h-18.68c-.237 0-.473-.238-.473-.476s.118-.476.473-.476zM13.783 32.93h12.06c.236 0 .472.237.472.475s-.236.476-.473.476H13.783c-.236 0-.473-.238-.473-.476 0-.357.119-.475.473-.475z"/>
            <path d="M23.714 24.128c0 1.427-1.773 2.498-3.901 2.498-2.246 0-3.902-1.07-3.902-2.498 0-1.428 1.774-2.498 3.902-2.498 2.128-.119 3.901 1.07 3.901 2.498zm-1.064.238c-.946-.357-1.655-.357-2.483.119-.709.356-1.418.475-2.128.475-.236 0-.472 0-.709-.119.473.357 1.419.714 2.365.714 1.537 0 2.719-.595 2.955-1.19zm-5.793-.595c.946.357 1.892.357 2.838-.238.827-.357 1.537-.476 2.482-.357-.473-.357-1.418-.713-2.364-.713-1.537.118-2.601.713-2.956 1.308zM21.35 16.396c0 .238-.237.476-.473.476-.237 0-.473-.238-.473-.476 0-.594-.237-.832-.591-1.189-.355-.357-.828-.833-.828-1.784 0-.952.473-1.427.828-1.784.354-.357.59-.595.59-1.19 0-.594-.236-.832-.59-1.19-.355-.356-.828-.832-.828-1.783 0-.238.237-.476.473-.476.237 0 .473.238.473.476 0 .594.236.832.591 1.19.355.356.828.832.828 1.783 0 .952-.473 1.428-.828 1.784-.355.357-.591.595-.591 1.19s.236.833.591 1.19c.355.356.828.832.828 1.783zM23.833 16.396c0 .238-.237.476-.473.476-.237 0-.473-.238-.473-.476 0-.356-.119-.475-.237-.594-.236-.238-.473-.595-.473-1.19 0-.594.237-.951.473-1.19.118-.237.237-.356.237-.594a.911.911 0 0 0-.237-.595c-.236-.237-.473-.594-.473-1.189 0-.238.237-.476.473-.476.237 0 .473-.119.473.238s.118.476.237.595c.236.238.473.595.473 1.19 0 .594-.237.95-.473 1.189-.119.238-.237.357-.237.594 0 .238.118.476.237.595.236.476.473.833.473 1.427zM18.158 16.396c0 .238-.237.476-.473.476-.237 0-.473-.238-.473-.476 0-.356-.118-.475-.237-.594-.236-.238-.473-.595-.473-1.19 0-.594.237-.951.473-1.19.119-.356.237-.475.237-.713a.911.911 0 0 0-.237-.594c-.236-.238-.473-.595-.473-1.19 0-.238.237-.476.473-.476.237 0 .473.238.473.476 0 .357.119.476.237.595.236.238.473.595.473 1.19 0 .594-.237.95-.473 1.189-.118.238-.237.357-.237.594 0 .238.119.476.237.595.236.357.473.714.473 1.308z"/>
        </g>
    </g>
</svg>
