<svg xmlns="http://www.w3.org/2000/svg" width="32" height="32" viewBox="0 0 32 32">
    <g fill="none" fill-rule="evenodd">
        <g fill-rule="nonzero">
            <g>
                <g>
                    <g>
                        <path fill="#000" d="M13.6 19.2L19.2 16.4 13.6 13.6z"
                            transform="translate(-1307 -937) translate(0 827) translate(1163 110) translate(144)" />
                        <path fill="#232334"
                            d="M16 0C7.165 0 0 7.165 0 16s7.165 16 16 16 16-7.165 16-16S24.835 0 16 0zm9.998 16.016s0 3.245-.412 4.81c-.23.856-.906 1.532-1.763 1.762C22.26 23 16 23 16 23s-6.242 0-7.823-.428c-.857-.23-1.532-.906-1.763-1.763C6.002 19.261 6.002 16 6.002 16s0-3.245.412-4.81c.23-.856.922-1.548 1.763-1.778C9.74 9 16 9 16 9s6.259 0 7.823.428c.857.23 1.532.906 1.763 1.763.428 1.564.412 4.825.412 4.825z"
                            transform="translate(-1307 -937) translate(0 827) translate(1163 110) translate(144)" />
                    </g>
                </g>
            </g>
        </g>
    </g>
</svg>